<?xml version="1.0" encoding="UTF-8"?><svg id="Layer_1" xmlns="http://www.w3.org/2000/svg" viewBox="0 0 1732.4 1080.31"><defs><style>.cls-1{fill:#3c3c3b;}</style></defs><path class="cls-1" d="M748.58,218.9c5.02-.63,9.29-1.6,12.53-5.52,1.41-1.71,3.44-3.05,5.41-4.15,9.37-5.21,18.61-11.29,28.81-14.09,7.38-2.03,15.2-4.64,23.34-3.75,2.51,.28,5.11-.46,7.67-.47,12.22-.07,24.45-.3,36.65,.06,4.48,.13,8.91,1.75,13.37,2.68,5.29,1.1,10.59,2.17,15.88,3.28,1.41,.3,3.15,.28,4.14,1.11,9.82,8.27,22.45,12.7,30.92,22.83,10.84,12.98,21.23,26.33,29.74,40.9,3.52,6.02,5.1,13.45,6.35,20.45,2.92,16.44,5.75,32.95,7.36,49.56,1.27,13.08,.05,26.38,1.07,39.5,1.02,13.18-3.23,26.06-1.15,39.28,.62,3.95-1.21,8.35-2.2,12.48-2.06,8.6-4.31,17.15-6.44,25.73-.2,.82,.15,1.83-.16,2.57-4.12,9.73-7.78,19.69-12.62,29.05-5.15,9.96-12.8,18.24-20.77,26.13-3.13,3.1-6.74,4.25-10.96,4.02-3.68-.2-7.35-.42-10.57-.6-.84,1.04-1.51,1.49-1.5,1.93,.06,7.61-1.95,13.45-10.85,14.52-1.8,.22-3.44,1.97-5.1,3.09-1.17,.79-2.15,2.27-3.4,2.5-7.57,1.43-15.17,2.73-22.8,3.8-8.79,1.23-17.6,2.4-26.45,3.13-3.89,.32-7.87-.48-11.8-.78-2-.16-4-.57-5.99-.5-12.02,.43-23.39-1.92-34.03-7.6-.75-.4-1.52-.99-2.31-1.07-19.1-1.83-31.99-14.08-44.57-26.71-5.61-5.63-8.29-5.87-13.11-.14-7.75,9.22-16.28,17.89-25.23,25.95-9.13,8.22-20.86,11.02-32.82,11.72-11.35,.66-22.84-.47-34.11,.68-19.24,1.96-38.27-1.72-57.44-.91-16.84,.71-33.71,.91-50.56,1.08-13.17,.13-26.34-.03-39.51-.28-2.82-.05-5.61-1.27-8.45-1.62-7.32-.89-11.45-5.57-13.06-12.08-2.1-8.53-3.42-17.27-4.79-25.96-.9-5.69-1.41-11.45-1.89-17.2-.66-7.87,.86-9.86,8.86-9.97,6.4-.08,11.78-1.9,14.06-7.93,1.47-3.89,2.34-8.92,1.17-12.72-3.74-12.19-8.55-24.06-12.9-35.91-10.32,0-20.05-.4-29.73,.09-16.26,.82-32.5,2.21-48.75,3.35-7.32,.51-14.64,.97-21.96,1.45-.29,.02-.63,.13-.85,.01-11.12-5.59-23.34-.18-34.69-3.49-1.91-.56-3.89-.91-6.27-1.45-5.74,4.57-10.41,9.76-11.56,18.02-.9,6.47-3.9,12.61-5.48,19.02-2.75,11.19,1.81,18.22,13.17,20.87,1.97,.46,4.02,.55,5.98,1.03,6,1.48,7.83,3.72,6.76,9.8-2.23,12.69-4.81,25.31-7.38,37.94-.72,3.54-1.47,7.2-3,10.43-3.71,7.82-11.75,7.94-18.35,7.62-7.39-.36-14.64-1-22.13-.63-11.9,.58-23.88-.3-35.82-.6-1.43-.04-3.04-.87-4.24-.43-8.78,3.19-17.64,.99-26.5,.94-9.47-.06-18.95,.77-28.4,1.48-7.98,.6-11.92-1.44-13.67-9.42-2.15-9.78-6.43-19.07-6.09-29.48,.15-4.44-1.68-9.01-2.93-13.43-3.31-11.66,1.18-18.64,13.21-20.48,4.25-.65,8.44-1.69,12.67-2.5,6.09-1.16,8.98-5.45,11.43-10.7,6.45-13.82,11.18-28.15,14.97-42.93,2.77-10.8,5.97-21.84,11.24-31.56,4.94-9.12,5.85-18.98,9.18-28.3,1.52-4.28,3.7-8.32,5.6-12.46,.36-.79,1.09-1.51,1.17-2.3,1.63-15.81,11.79-28.95,13.96-44.6,.22-1.6,1.01-3.72,2.23-4.49,4.62-2.89,4.41-7.87,5.77-12.13,1.56-4.88,2.58-9.92,4.17-14.79,3.37-10.34,6.92-20.63,10.46-30.92,.74-2.15,1.7-4.24,2.66-6.31,1.93-4.16,4.15-8.2,5.87-12.45,4.62-11.43,9.3-22.85,13.46-34.45,2.76-7.69-.36-12.05-8.34-13-2.83-.34-5.74-1.35-8.48-1-11.45,1.46-15.73-5.35-13.59-17.07,2.5-13.7,4.5-27.41,6.3-41.2,2.02-15.46,10.41-21.81,26.24-20.47,4.57,.39,9.06,1.53,13.63,2.03,4.86,.53,9.8,1.27,14.64,.92,12.91-.92,25.75-.82,38.58,.88,1.12,.15,2.41,1.21,3.27,.89,10.72-4.03,21.58,2.72,32.28-.53,.54-.16,1.24-.34,1.71-.14,9.69,4.02,19.77,.81,29.48,.71,15.66-.16,31.39,2.06,47.06-.35,3.28-.5,6.91,.47,10.23,1.31,5.07,1.29,9.88,1.47,15.22,.81,7.45-.93,14.77,1.59,20.33,7.11,1.4,1.39,1.67,4.07,2.14,6.23,1.35,6.14,2.63,12.3,3.76,18.48,.5,2.77,.56,5.62,.81,8.43,.2,2.26-.23,4.81,.69,6.72,2.61,5.41,2.13,11.15,2.71,16.8,.46,4.46-1.81,6.5-5.75,7.04-2.54,.35-5.22-.14-7.72,.34-3.5,.67-7.32,1.22-10.26,3.03-6.18,3.79-7.3,9.32-4.51,16.19,4.55,11.2,8.57,22.61,12.77,33.95,1.4,3.78,2.68,7.61,4.02,11.42,2.46,6.99,5.06,13.93,7.34,20.98,2.38,7.33,4.24,14.84,6.73,22.14,4.72,13.82,10.22,27.39,14.45,41.35,3.15,10.4,9.36,19.74,10.04,31.03,.23,3.8,2.77,7.42,4.01,11.19,2.29,6.95,4.29,14,6.63,20.94,1.69,5,.82,9.55-1.31,14.18-2.45,5.33-2.05,7.42,3.07,10.8,4.13,2.73,6.34,6.39,8.14,10.75,1.15,2.79,3.13,5.23,4.64,7.89,.66,1.17,1.44,2.47,1.51,3.74,.78,13.26,6.9,24.94,11.4,37,3.27,8.76,10.91,13.78,20.06,15.99,4.19,1.01,7.46-1.36,7.4-5.9-.14-10.32-.7-20.64-1.1-30.95-.07-1.71-.53-3.46-.28-5.12,2.98-19.82,.39-39.58-.56-59.36-.69-14.3-.93-28.63-1.53-42.94-.41-9.71-1.2-19.39-1.62-29.1-.44-10.01-.62-20.03-.95-30.05-.07-2-.24-3.99-.45-5.98-1.19-11.46-2.73-22.89-3.49-34.37-.41-6.26,.9-12.62,.7-18.92-.54-16.32-1.51-32.63-2.22-48.94-.06-1.36,.35-2.88,.97-4.1,5.33-10.49,3.66-21.69,3.56-32.76-.03-2.8,.24-5.68,.92-8.39,3.27-13.04-5.5-25.94-18.93-27.53-2.01-.24-4.09-.06-6.04-.48-7.84-1.71-12.92-9.86-9.73-17.19,4.67-10.74,5.99-21.97,7.3-33.37,1.5-13.02,10.43-19.64,22.4-18.68,13.6,1.09,26.57-1.68,39.55-5.75,8.73-2.73,18.09-3.43,27.15-5.16,9.26-1.77,18.7-2.28,28.01-3.77,10.75-1.72,21.49-3.8,32.29-5.42,1.4-.21,2.86-.21,4.18-.65,10.75-3.61,18.19-.09,21.17,10.51,1.4,4.97,2.04,10.16,3.07,15.23,.98,4.83-1.75,10.52,3.34,14.4-1.89,5.68,.9,10.44,2.59,15.6,1.59,4.87-3.18,10.72-8.28,12.4-4.85,1.6-9.72,3.46-14.14,5.97-2.29,1.3-4.37,4-5.25,6.52-1.89,5.4-3.59,11.02-4.2,16.68-1.45,13.38-2.2,26.84-3.25,40.27-.69,8.71-1.76,17.05-9.97,22.74-2.73,1.89-3.7,5.92-.31,9.03,7.14,6.54,8.08,14.46,6.46,23.64-1.13,6.43-.62,13.18-.55,19.78,.02,1.53,1.27,3.04,2.04,4.75Zm56.93,237.06c.03-.15,.06-.3,.09-.45,3.14,0,7.16,1.24,9.24-.25,4.77-3.41,10.25-3.21,15.3-4.9,2.12-.71,4.59-1.59,5.91-3.2,5.41-6.59,10.75-13.27,13.09-21.78,3.35-12.2,6.34-24.39,4.48-37.21-.2-1.37,.51-2.85,.53-4.28,.12-11.48,.57-22.97,.11-34.43-.29-7.14-1.95-14.22-3.02-21.32-1.71-11.3-2.61-22.78-9.81-32.5-4.08-5.51-6.91-12.42-14.35-14.11-8.63-1.97-17.08-6.93-26.42-2.09-2.14,1.11-5.18,1.3-7.61,.86-7.85-1.41-14.06,1.38-19.67,6.48-1.7,1.55-3.88,2.65-5.29,4.4-4.1,5.08-9.18,9.87-11.51,15.72-2.69,6.79-3.27,14.53-4.05,21.93-1.96,18.48,1.22,37-.27,55.58-.83,10.39,.09,20.91,2.34,31.45,3.87,18.12,19.8,35.3,38.23,38.46,4.2,.72,8.46,1.11,12.69,1.65ZM401.38,170.01c-1.38,2.74-2.37,4.1-2.78,5.62-3.48,12.73-8.15,25.32-9.86,38.3-1.31,9.97-3.4,19.9-6.32,29.1-6.96,21.85-16.22,42.98-24.72,64.33-3.05,7.65-6.75,15.05-9.8,22.7-1.4,3.51-3.7,7.57-.85,9.47,8.51,0,15.06-.09,21.6,.02,20.06,.32,40.12,.8,60.18,1.03,5.06,.06,10.12-.55,15.71-.88-.2-5.9,.43-10.5-2.87-15.49-4.03-6.09-6.66-13.25-9.02-20.24-2.83-8.4-4.59-17.15-7.07-25.67-4.58-15.73-9.68-31.31-13.89-47.14-2.42-9.08-5.67-18.77-4.59-27.71,1.11-9.2-2.63-16.61-3.73-24.87-.32-2.43-1.1-4.81-1.99-8.55Zm287.1-81.06c-.6,5.86,2.46,7.79,6.1,8.94,.77,.24,2.07-1.22,3.73-2.28-3.51-2.38-6.34-4.29-9.83-6.65Zm221.79,302.14v-9.13c-4.5,3.64-4.66,6.41,0,9.13Zm-400.47,39.47c4.48,1.3,5.89,5.81,10.26,3.14q-4.54-5.43-10.26-3.14Zm415.38-7.63c1.66-1.79,2.57-2.78,3.97-4.3-2.67-.75-4.58-1.28-8.29-2.31,1.97,3.01,2.84,4.35,4.32,6.61Zm-376.46,51.76c-.44-.63-.88-1.26-1.31-1.89-1.55,1.12-3.1,2.23-5.44,3.92,4.72,2.32,5.63-.07,6.76-2.03Zm-26.6-21.73q6.41,1.02,6.27-3.4c-1.74,.95-3.43,1.86-6.27,3.4Zm412.2-84.72c.59,.14,1.17,.27,1.76,.41,.3-2.71,4.12-4.56-.08-9.88-.74,4.14-1.21,6.81-1.68,9.47ZM737.35,45.49c1.85,2.88,3.08,4.79,4.31,6.7q.52-5.24-4.31-6.7Zm-179.93,424.49c-.34,.62-.68,1.25-1.02,1.87,.51,.61,.93,1.34,1.54,1.82,1.58,1.24,4.47,.12,3.63-1.1-.85-1.23-2.72-1.76-4.15-2.59Zm134.85-137.82c.5,.23,1,.46,1.5,.68,.78-1.62,1.56-3.23,2.33-4.85-.54-.25-1.08-.5-1.63-.74-.74,1.64-1.47,3.27-2.21,4.91Zm133.52,163.71c2.03-1.94,3.25-3.1,4.74-4.53q-5.99-1.77-4.74,4.53Zm-165.99-17.15c.53-1.15,1.17-1.98,1.19-2.82,.01-.4-1.53-1.31-1.67-1.19-.76,.65-1.3,1.56-1.91,2.38,.61,.41,1.21,.83,2.39,1.63Zm17.98,30.6c-3.85,2.73-3.6,4.48-.65,7.15,.23-2.47,.38-4.2,.65-7.15Zm190.59-38.63c.3-.47,.61-.95,.91-1.42-1.35-.89-2.7-1.77-4.05-2.66-.4,.62-.8,1.25-1.2,1.87,1.45,.74,2.89,1.47,4.34,2.21Zm-301.74,1.44c-.05,.78-.1,1.56-.16,2.33,1.13,0,2.25,.05,3.37-.06,.13-.01,.3-1.32,.23-1.35-1.12-.38-2.29-.64-3.44-.92Zm153.23-337.95c.54-.42,1.09-.85,1.63-1.27-.7-.87-1.41-1.74-2.11-2.6-.38,.31-1.14,.78-1.08,.91,.43,1.02,1.02,1.98,1.56,2.96Zm-55.71,354.68v-6.57c-3.11,2.92-3.81,4.6,0,6.57Z"/><path class="cls-1" d="M272.97,958.17c2.93,2.53,6.77,4.52,8.62,7.68,5.24,8.94,13.79,14.49,20.61,21.78,1.64,1.76,5.27,2.58,3.62,6.33-.1,.22,.39,1,.58,.99,6.16-.28,7.9,6,12.36,8.29,4.37,2.24,9.31,4.21,12.55,7.66,5.7,6.08,13.6,7.18,20.81,10.95,3.46-2.07,7.33-2.08,11.54-.41,2.71,1.08,5.56,.67,8.45-1.1,6.89-4.22,15.43-4.99,21.89-10.37,4.29-3.56,7.81-7.18,10.56-12.42,3.07-5.85,5.04-11.63,6.02-17.96,.33-2.13,.39-4.31,.5-6.47,.22-4.15,2.48-6.32,6.7-6.07,6.51,.39,13.01,.97,19.52,1.35,1.15,.07,2.32-.63,3.5-.76,3.92-.43,7.86-.75,11.78-1.15,1.71-.17,3.48-.19,5.1-.69,5.58-1.71,11.11-3.59,16.69-5.42,3.28,2.91,4.17,5.95,1.45,9.2-2.07,2.48-1.81,5.31-2.48,8.1-1.85,7.62-4.56,15.1-7.63,22.34-3.75,8.84-7.69,17.69-12.53,25.96-3.82,6.53-8.87,12.42-13.86,18.18-3.51,4.05-7.9,7.33-11.78,11.09-4.96,4.8-10.76,7.46-17.71,7.42-1.28-2.9-2.45-5.99-6.82-4.13q2.3,3.22,7.02,3.96c-3.1,7.18-10.14,7.2-16.21,8.61-5.42,1.25-11.07,2.97-16.27,3.37-10.07,.77-19.93,5.7-30.36,2.16-2.23-.76-5.04-.71-7.35-.11-6.02,1.55-11.73,.1-17.55-.91-6.81-1.19-13.65-2.18-20.46-3.4-9.78-1.76-18.76-5.4-27.2-10.82-6.34-4.08-13.4-7.03-20.06-10.63-2.62-1.41-4.67-1.55-7.53,.03-7.33,4.02-15.02,7.37-22.51,11.11-1.29,.64-2.19,2.03-3.45,2.77-2.13,1.24-4.3,2.86-6.63,3.24-15.83,2.62-31.09,8.28-47.34,8.67-4.66,.11-9.31,1.4-13.96,1.37-6.62-.05-13.22-.94-19.84-1.27-6.63-.32-13.28-.59-19.92-.52-10.44,.1-20.13-3.46-30.08-5.75-5.86-1.35-11.19-3.34-12.89-10.45-1.37-5.7-8.96-9.29-16.01-6.75-5.2,1.87-8.69,.98-12.72-2.5-11.27-9.73-20.08-21.14-27.57-34.07-5.71-9.86-7.18-20.98-11.88-31.01-.55-1.17,.06-2.86,0-4.3-.09-2.45,.1-4.99-.48-7.34-3.29-13.31-1.22-26.52,.42-39.76,1.52-12.27,6.72-23.3,13.32-33.24,4.04-6.08,8.07-13.04,15.36-16.57,1.69-.82,2.94-2.53,4.46-3.73,2.08-1.64,4.21-3.2,6.36-4.75,.38-.28,1.09-.19,1.37-.51,6.49-7.38,15.94-9.56,24.2-13.81,6.32-3.25,12.83-6.13,19.2-9.29,1.64-.81,3.05-2.07,5.34-3.66-5.99-3.88-8.34-8.68-7.9-14.84,.06-.82-.69-2.21-1.41-2.5-5.64-2.28-5.97-6.5-5.84-11.92,.08-3.32-2.49-6.85-4.31-10.03-1.81-3.15-2.3-5.95-1.67-9.76,1.45-8.75,1.29-17.76,2.73-26.51,1.32-8.01,3.6-15.9,6.13-23.63,.57-1.73,3.83-2.75,6.01-3.74,1.45-.65,3.19-.66,5.64-1.11-5.09-6.68-.84-11.02,2.84-15.28,7.77-9.01,18.35-14.47,28.32-20.26,5.27-3.06,11.7-6.91,18.91-5.03,9.04-4.03,19.14,.04,28.24-3.7,1.01-.41,2.42-.05,3.59,.18,12.91,2.55,26.01,4.45,38.67,7.95,10.71,2.96,20.76,7.55,29.91,14.71,6.03,4.72,12.1,8.92,16.75,15.16,6.37,8.55,9.07,18.61,12.66,28.33,.17,.45,.34,1.04,.2,1.45-2.99,8.75,2.06,17.37,.45,26-.92,4.97,.07,10.95-5.64,14.11-.39,.22-.75,.73-.87,1.17-5.03,18.58-8.81,25.19-21.83,35.52-7.75,6.15-15.9,11.81-24.58,16.64-7.81,4.35-8.17,8.01-2.57,15.24,4.5,5.81,8.19,12.24,12.41,18.27,3.33,4.75,6.92,9.33,10.43,13.96,.44,.59,1.17,.97,1.58,1.57,5.23,7.69,10.44,15.4,15.64,23.12,4.11,6.11,8.19,12.25,12.28,18.38-1.5,.14-3,.27-5.53,.5,2.81,3.09,4.66,5.63,7.01,7.55,2.1,1.71,2.94,.12,2.94-2.02Zm166.9,20.78c.77,2.52,1.85,4.3,6.17,1.32-2.96-.54-4.64-.84-6.33-1.15,1.76-1.88,2.16-3.54-1.68-5.52,.84,2.47,1.34,3.91,1.83,5.35Zm-260.42-83.07c.56-1.59,1.11-3.19,1.67-4.78-.49-.07-.98-.13-1.47-.2,0,1.72,0,3.44-.03,5.12-2.06-.58-3.98-.84-4.95,1.84,3.01,2.02,3.88-.03,4.78-1.99Zm60.33-91.23c-2.5-.93-4.93-1.33-6.11,1.8-.21,.55,.71,2.18,1.21,2.22,2.95,.28,4.51-1.34,4.83-4.23q4.31,2.42,5.8-1.54c-2.21,.67-3.97,1.21-5.74,1.75Zm-30.22,103.21c-1.5-.42-3-.84-4.5-1.26,.01,2.78,.87,4.55,2.08,6.03,.19,.23,2.6-.63,2.9-1.41,.36-.94-.42-2.33-.75-3.56,1.06-.93,3.18-2.2,3.01-2.73-.74-2.33-2.52-2.29-4.69-.63,.66,1.2,1.3,2.38,1.95,3.56Zm-2.39,139.78c.5-2.82-1.78-3.73-3.85-4.71,1.33,1.53,2.67,3.06,4,4.58,1.29,1.45,2.58,2.9,4.51,5.07,1.87-3.31,3.1-5.5,5-8.87-2.77-.14-4.54-.77-5.61-.16-1.61,.91-2.72,2.69-4.05,4.09Zm203.26-.26q-2.73,5.16,3.97,9.49c-1.8-4.1-2.97-6.75-4.13-9.4q5.56-6.34,.13-10.58c-.28,2.21-.57,4.47-.76,5.9-2.99,.63-5.65,.44-6.68,1.64-.97,1.13-.21,3.74-.21,5.89,3.22-1.24,5.46-2.09,7.68-2.95Zm-235.26-129.18c-4.77,2.06-8.41-1.92-12.83-3.12q1.5,9.14,4.05,11.55c1.93-1.38,4.06-2.6,5.79-4.24,1.21-1.15,1.87-2.87,2.74-4.36,1.4-.15,2.8-.3,6.03-.66-3.38-1.17-5.18-1.8-6.99-2.43-.17,.33-.34,.66-.52,.99,.58,.76,1.15,1.51,1.73,2.27Zm-30.64,132.46c-.39-2.68-.78-5.36-1.33-9.12-2.9,1.36-5.72,2.69-9.78,4.6,2.41,1.79,4.33,3.2,6.07,4.49-.45,2.71-1.87,6.54-1.06,7.09,4.87,3.32,.12,6.02-.37,8.65,1.82,1.58,3.33,2.88,5.3,4.59,1.66-1.42,3.11-2.67,3.46-2.97-1.4-2.19-2.69-3.33-2.85-4.61-.51-4.19-2.43-8.49,.31-12.61,.23,1.7,.46,3.41,.68,5.11,.58,0,1.16,0,1.74-.01,.37-1.89,.74-3.77,1.12-5.7-1.13-.15-1.63-.34-2.07-.24-.44,.1-.82,.48-1.23,.73Zm-86-76.62c3.16-6.5,5.44-13.02-.32-20.72-.63,2.68-1.49,4.48-1.37,6.2,.35,4.85,1.11,9.67,1.71,14.51,4.54-.53,3,4.38,5.33,5.9,1.48,.19,3.02,.38,5.15,.65-1.08,2.24-1.86,3.84-2.58,5.34,4.88,3.16,6.78-1.02,9.77-3.41-3.21-4.73,.91-7.81,3.59-11.54-2.07-1.96-3.8-3.6-5.53-5.25q.06-4.66-2.69-8.28c-.12,3.44-1.79,6.83,2.87,8.13-2.09,3.58-4.19,7.16-6.6,11.29-2.68-1.73-5.39-4.79-9.32-2.82Zm65.37-70.91c-3.17,2.38-5.7,4.25-8.19,6.17-1.56,1.2-3.61,2.18-4.47,3.78-4.35,8.08-11.04,14.98-12.05,24.77-.59,5.78-3.75,11.9-2.54,17.11,1.54,6.59-.56,13.66,3.5,19.92,3.93,6.04,6.09,13.32,10.42,18.98,7.33,9.59,17.36,15.9,28.21,21.44,16.26,8.31,32.84,5.81,49.5,3.56,4.95-.67,9.55-3.64,14.46-5.03,4.04-1.14,5.72-3.42,5.63-7.49-3.72-3.67-7.1-7.66-11.11-10.83-5.88-4.65-12.79-8.06-15.7-15.76-.62-1.65-2.83-2.69-4.29-4.02-2.89-2.61-6.95-4.69-8.43-7.94-4.4-9.72-11.28-17.74-17.49-26.05-7.06-9.44-13.16-19.36-19.48-29.22-2.16-3.38-2.79-8.7-7.97-9.38Zm37.65-123.08c-3.4,1.94-4.22,3.4-2.49,6.88,4.72,9.45,8.87,19.22,16.28,27.13,2.23,2.38,4.73,3.42,7.19,2.3,5.79-2.63,12.02-5.06,16.71-9.15,7.7-6.72,13.82-14.91,12.58-26.26-.08-.72,.05-1.49,.21-2.21,1.9-8.63-2.68-15.4-8.25-20.23-10.59-9.17-28.64-8.24-38.12-.77-3.31,2.61-6.36,6.76-7.33,10.74-.76,3.14,1.84,7.11,3.21,11.56Zm89.27,262.24c-2.13-2.87-3.8-5.11-5.56-7.49,1.02-1.58,2.04-3.16,3-4.65-1.9-2.28-3.56-4.26-5.2-6.23-5.01,3.61-5.31,3.97-3.32,7.91,1.53,3.03,3.31,5.75,2.87,9.49-.14,1.16,1.8,2.57,2.83,3.91,1.68-.92,2.96-1.62,5.38-2.94Zm-78.58-182.33c.2-.75,.4-1.5,.61-2.25-4.06-2.86-8.13-5.72-12.09-8.51-3.41,3.7-2.68,7.5-1.94,11.11,.42,2.07,2.81,2.93,3.95,1.31,2.57-3.62,5.5-4.06,9.48-1.67Zm51.46-42c2.7-5.16,7.77-7.93,4.67-14.72-3.25,2.02-6.3,3.92-9.78,6.08,1.78,3.01,3.17,5.36,5.11,8.64Zm192.6,213.84c-.83,5.36,2.2,10.58-.91,15.44-.32,.51,1.25,2.23,1.95,3.39,1.3-.81,3.22-1.31,3.79-2.48,2.49-5.05-3.88-9.24-1.73-14.45,.11-.26-.91-1.02-1.45-1.5-.16-.14-.46-.12-1.64-.4Zm-321.7-19.06c1.28-4.73,5.35-9.8-1.38-13.39,1.19-2.48,2.28-4.75,4.03-8.39-3.13,3.07-5.1,5-7.49,7.33-.32,4.86,6.27,8.33,4.84,14.44Zm68.67-129.61c-3.2,3.81-5.93,6.89-10.62,5.52-.25-.07-1.12,1.96-1.7,3.01,4.96-2.39,10.02,4.22,14.34-.79-.58-2.22-1.15-4.44-2.01-7.74Zm-118.81,43.86c-1.64,2.65-2.7,5.2,.02,6.79,.93,.54,3.19-1.2,4.9-1.93,.74,1.43,1.63,3.16,3.05,5.88q.4-10.42-7.98-10.74Zm215.2,31.17c-2.44,1.26-5.14,2.24-7.14,4.01-.48,.42,1.38,3.49,2.18,5.38q7.57-3.78,4.97-9.39Zm-47.91,71.12c-.31,.21-.62,.41-.94,.62,.14,3.05,.29,6.09,.43,9.09q8.77-8.59,7.11-14.75c-1.26,3.29-2.38,6.21-3.74,9.78-.85-1.4-1.21-1.98-1.56-2.56-.44-.73-.87-1.45-1.31-2.18Zm-93.88-1.08q3.26,8.39,9.32,6.23c-1.91-7.19-2.76-7.81-9.32-6.23Zm-.4,12.58c-.93,6.78,.13,8.14,6.72,9.31q-.03-6.82-6.72-9.31Zm184.34-12.4c-.65-.65-1.31-1.3-1.96-1.95-2.09,1.28-5.01,2.1-6.06,3.97-1.34,2.39-.91,5.52,2.05,6.88,2.16-3.21,4.07-6.05,5.97-8.89Zm-108.05-133.97c-3.86-5.66-5.48-5.62-8.95-.21,2.67,2.8,5.5,2.22,8.95,.21Zm148.73,164.67c1.3,2.44,2.35,4.4,3.66,6.85,2.34-2.81,6.21-4.33,4.09-7.64-2.05-3.21-4.62-.1-7.75,.79Zm-106.15-98.08c-3.31-2.27-5.42-3.71-7.52-5.14q-3.09,2.69-2.05,6.56c2.72-.4,5.48-.81,9.57-1.42Zm72.48,82.8c-2.68-3.9-6.01-4.04-9.84-2.99-.7,2.69-.9,4.87,2.68,4.45,2.32-.27,4.6-.92,7.15-1.46Zm-61.7-230.12c-1.78,7.03-1.76,7.07,3.4,8.81-1-3.22,2.51-7.47-3.4-8.81Zm-25.38,117.79c2.38-2.89,3.95-4.84,2.05-7.38-1.32-1.77-3.13-2-5.37-.28,.96,2.22,1.91,4.41,3.31,7.66Zm21.9-147.33c-2.06,7.05-.51,9.36,5.03,8.75-1.55-2.69-2.91-5.06-5.03-8.75Zm78.85,281.89c3.05-2.12,8.32-.8,9.83-6.22-4.73,.4-8.81,.77-9.83,6.22Zm-134.09-210.85c3.26-2.71,5.18-4.23,3.88-7.12-.83-1.84-1.15-4.68-4.83-3.04,.26,2.79,.53,5.67,.96,10.16Zm-84.28,211.08c3.38,1.06,5.98,1.88,9.02,2.84,.33-1.72,.58-3.02,1.11-5.86-3.42,3.13-6.8-1.84-10.14,3.02Zm137.89-241.89c-7.68-.72-9.54,.46-9.07,4.87,2.67-1.43,5.36-2.88,9.07-4.87Zm-81.23,107.71c.55,3.45,.83,5.2,1.18,7.39,1.81-.85,3.01-1.42,5.1-2.39-2.07-1.65-3.45-2.75-6.28-4.99Zm-60.68,102.91c-.66-.07-1.33-.14-1.99-.21-.17,2.24-.34,4.48-.63,8.2,4.11-3.22,4.4-5.44,2.62-7.99Zm100.93-196.53q-4.85,5.47-3.05,8.29c3.66-1.69,3.31-4.73,3.05-8.29Zm-81.96,18.71c.08-.61,.15-1.21,.23-1.82-1.33-.44-3.58-1.55-3.82-1.2-1.07,1.48-1.55,3.38-2.88,6.71,3.3-1.88,4.89-2.78,6.48-3.69Zm105.48,59.9c1.97-2.1,4.69-3.45,2.19-6.75-2.95,1.31-5.15,2.59-2.19,6.75Zm7.28,118.07c.64-.2,1.28-.39,1.91-.59-.6-3.01,.85-6.68-3.9-9.08,.75,3.65,1.37,6.66,1.98,9.67Zm-174.94-8.28c-1.06,2.54-2.13,5.08-3.71,8.85q5.39-3.06,3.71-8.85Zm250.2,35.1c-3.13,4.54-.05,5.06,2.55,5.68,.37,.09,.98-.82,1.83-1.6-1.44-1.35-2.72-2.54-4.37-4.09Zm-201.99-46.24c-1.17-2.6-2-4.45-2.99-6.63q-2.85,4.1,2.99,6.63Zm45.62-169.68c-.58,.33-1.16,.65-1.75,.98,.65,1.22,1.04,2.8,2.04,3.54,.67,.49,2.22-.24,4.58-.61-2.34-1.87-3.61-2.89-4.88-3.9Zm-72.37,82.83c.85-1.75,1.77-2.75,1.61-3.55-.17-.89-1.31-1.6-2.03-2.38-.63,.86-1.72,1.71-1.75,2.59-.03,.83,1.05,1.71,2.17,3.34Zm358.49,78.39q-3.72,4.01-1.93,7.08c.37-.28,1.02-.52,1.08-.86,.36-2.06,.58-4.14,.85-6.22ZM20.93,974.72c.31,3.28,.48,5,.67,6.94q3.77-2.09-.67-6.94Zm36.9,.9c1.1,3.76,1.86,6.39,2.63,9.02,.62-.2,1.23-.41,1.85-.61-1.33-2.46-.58-5.62-4.48-8.41Zm206.3,2.08c-.9-3.17-1.54-5.44-2.19-7.7-1.11,2.76-2.19,5.52,2.19,7.7Zm-115.89-54.64c1.42,1.43,2.85,2.85,4.47,4.48q2.33-5.15-4.47-4.48Zm24.32,139.95c1.41-2.62,2.21-4.11,3.17-5.9-1.49-.8-2.62-1.41-4.96-2.67,.69,3.27,1.1,5.23,1.8,8.57Zm-69.32-30.44q4.56,1.79,5.77-2.38c-2.23,.92-4,1.65-5.77,2.38Zm29.49-3.24q4.93,2.75,7.11,.53-3.25-1.4-7.11-.53Zm121.7-3.36q-.33,5.83,4.33,4.53c-1.24-1.3-2.32-2.43-4.33-4.53Zm7.84-21.37c-2.83,4.82-2.73,5.14,1.44,8.1-.43-2.44-.79-4.48-1.44-8.1Zm191.61-31.25c-1.41,1.77-2.41,3.01-3.74,4.67q4.13,.04,3.74-4.67Zm-381.63-60.71c-1.81-.95-2.88-1.78-4.05-1.99-.48-.09-1.21,1.15-1.83,1.78,1.05,.75,2.02,1.71,3.19,2.15,.43,.16,1.32-.91,2.69-1.94Zm134.07-26.67c-3.05-3.22-4.88-3.64-7.47-1.69,2.21,.5,4.03,.91,7.47,1.69Zm-116.52-102.27q-2.23,5.59,2.62,5.4c-.86-1.77-1.62-3.34-2.62-5.4Zm-37.67,223.87c-.67,.09-1.34,.18-2,.26,.23,1.59,.46,3.18,.7,4.77,.81-.18,1.62-.36,2.43-.54-.37-1.5-.75-3-1.12-4.5Zm389.1-3.04c.82,2.02,1.64,4.04,2.46,6.06,1.31-2.88,1.72-5.41-2.46-6.06Zm-238.19-182.11c.24,2.28,.35,3.4,.55,5.33,1.92-1.24,3.16-2.05,5.33-3.46-2.42-.77-3.7-1.18-5.89-1.87Zm-25.75,21.83c1.74,1.02,2.94,1.73,4.85,2.86-.27-2.4-.42-3.76-.64-5.8-1.56,1.09-2.62,1.84-4.21,2.95Zm41.32,143.88c.54,.19,1.09,.39,1.63,.58,.36-1.69,.81-3.38,.99-5.09,.04-.33-.97-.77-1.6-1.24-.38,2.12-.7,3.93-1.02,5.75Zm174.93,70.81c-.27,.83-.55,1.65-.82,2.48,1.5,.51,2.98,1.05,4.51,1.45,.08,.02,.75-1.61,.67-1.66-1.41-.83-2.89-1.54-4.36-2.27Zm-200.64-152.02c1.79,.93,3.21,1.66,5.21,2.7v-5.68c-1.91,1.09-3.33,1.9-5.21,2.98Zm156.76,137.52c-.78,1.26-1.49,1.99-1.68,2.83-.24,1.08-.06,2.25-.06,4.59,1.17-2.36,1.92-3.58,2.37-4.9,.18-.52-.29-1.25-.63-2.52Zm-110.66-295.24c.49,.02,.98,.04,1.47,.06,.06-1.36,.12-2.72,.19-4.08-.49-.02-.98-.04-1.47-.06-.06,1.36-.12,2.72-.18,4.08Zm-137.41,240.33c-.31,2.27-.54,3.93-.84,6.16q3.41-2.23,.84-6.16Zm65.14-56.9c.64,.58,1.28,1.15,1.92,1.73,.76-1.18,1.53-2.36,2.23-3.58,.02-.03-.96-.82-1.08-.73-1.08,.79-2.06,1.7-3.07,2.58Zm37.25,37.05c-.41,1.68-1,2.74-.69,3.16,.59,.82,1.67,1.29,2.55,1.9,.36-.73,1.19-1.68,.97-2.15-.42-.91-1.42-1.54-2.83-2.92Zm22.25-38.73q3.76-1.08,1.46-4.31c-.53,1.56-.94,2.77-1.46,4.31Zm-133.31-21.4c-.07-.69-.15-1.37-.22-2.06-1.34,.27-2.67,.53-4.01,.8,.08,.48,.15,.97,.23,1.45,1.33-.06,2.67-.13,4-.19Zm138.82,64.12c-.47,2.2-.8,3.78-1.14,5.36,3.38-.94,4.89-2.27,1.14-5.36Zm-11.84-61.28c-1.66-.8-2.63-1.55-3.66-1.64-.48-.04-1.08,1.19-1.62,1.85,.94,.6,1.82,1.45,2.85,1.7,.48,.12,1.24-.93,2.43-1.91Zm94.93,122.68c.28-.56,.56-1.11,.84-1.67-1.06-.77-2.13-1.53-3.19-2.3-.26,.85-.98,2.2-.7,2.46,.8,.74,2.01,1.03,3.05,1.51ZM57.92,923.61c-.47-.1-.93-.19-1.4-.29-.31,1.32-.61,2.63-.92,3.95,.52,.11,1.04,.22,1.55,.33,.25-1.33,.51-2.66,.76-3.99Zm100.2,114.34c-.23,2.38-.36,3.71-.53,5.39q4.18-2.05,.53-5.39Zm30.31,29.6c.63,.04,1.26,.08,1.89,.11v-3.92c-.41-.04-.81-.08-1.22-.12-.22,1.31-.45,2.62-.67,3.93Zm33.53-34.97v6.18c3.57-1.72,3.32-3.38,0-6.18Zm-103.09-264.59q-1.76,2.96,1.43,4.48c-.55-1.7-.93-2.91-1.43-4.48Zm-45.22,186.85c-1.02-3.48-1.82-5.6-5.2-3.16,1.78,1.08,3.17,1.93,5.2,3.16Zm163.1-3.2c-.26-.4-.52-.81-.78-1.21-.94,.64-1.88,1.28-2.83,1.92,.27,.34,.7,1.01,.77,.97,.98-.51,1.9-1.11,2.84-1.69Zm-13.01-.98c.55,.31,1.1,.61,1.65,.92,.79-1.71,1.57-3.43,2.36-5.14-.44-.22-.88-.44-1.33-.67-.89,1.63-1.79,3.26-2.68,4.88Zm-106.48-69.94c.43-.02,.87-.04,1.3-.06-.09-1.51-.18-3.02-.27-4.53-.42,.02-.85,.04-1.27,.06,.08,1.51,.16,3.02,.24,4.52Zm68.63-49c-.85,1.57-1.37,2.51-1.94,3.56,1.39,.44,2.42,.76,4.19,1.31-.83-1.79-1.38-2.98-2.25-4.87Zm37.2,164.29c-.6-1.67-1.11-3.1-1.71-4.77q-3.1,3.63,1.71,4.77Zm-62.27,59.63c.23,.25,.46,.5,.68,.75,.76-.55,1.53-1.1,2.29-1.65-.4-.46-.79-.93-1.19-1.39-.59,.76-1.19,1.53-1.79,2.29Zm26.63-4.74c-.51,1.06-1.05,1.81-1.18,2.62-.06,.4,.66,.92,1.03,1.38,.64-.79,1.35-1.55,1.85-2.42,.07-.12-.88-.83-1.7-1.58Zm-11.09,3.47c.37-.54,.74-1.08,1.11-1.61-1.06-.61-2.11-1.22-3.2-1.77-.02-.01-.7,1.01-.62,1.08,.85,.82,1.79,1.55,2.71,2.3Zm81.23-280.09c-.38-.42-.76-.85-1.14-1.27-.76,.85-1.52,1.7-2.29,2.55,.29,.29,.58,.57,.87,.86,.85-.71,1.71-1.42,2.56-2.14Zm-87.64,253.21c-.44-.49-.88-.98-1.32-1.47-.8,.91-1.59,1.81-2.39,2.72,.25,.29,.5,.58,.76,.86,.99-.7,1.97-1.41,2.96-2.11Zm-104.3-134.09c-.32-.21-.64-.43-.96-.64-.6,.76-1.2,1.53-1.79,2.29,.5,.35,.99,.7,1.49,1.05,.42-.9,.84-1.8,1.26-2.7Zm31.45,4.86c.44,.05,.88,.1,1.33,.15,.15-1.16,.29-2.32,.44-3.48-.47,0-1.35-.06-1.36,.03-.21,1.08-.29,2.19-.4,3.3Zm70.11,153.18c.16-.67,.31-1.34,.47-2.01-1.51-.23-3.02-.46-4.54-.69-.08,.42-.15,.84-.23,1.25,1.43,.48,2.86,.96,4.29,1.44Zm-95.45-151.43c.59-.05,1.17-.11,1.76-.16-.21-1.09-.36-2.19-.67-3.25-.04-.15-.83-.08-1.28-.11,.07,1.17,.13,2.35,.2,3.52Zm73.12-61.72c.32-.61,.64-1.22,.97-1.83-1.17-.6-2.33-1.21-3.5-1.81-.28,.49-.57,.98-.85,1.47,1.13,.73,2.25,1.45,3.38,2.18Zm86.65-.88c-1.23-1.15-1.85-1.73-2.48-2.31-.58,.65-1.27,1.24-1.66,1.99-.11,.21,.67,1.26,1.04,1.27,.78,0,1.56-.44,3.09-.95Zm153.25,226.37c.41-.14,.83-.27,1.24-.41-.3-.95-.61-1.9-.91-2.85-.43,.15-1.25,.41-1.24,.44,.25,.95,.59,1.89,.92,2.82Zm-251.95-277.52c.14,.58,.28,1.17,.42,1.75,1.13-.47,2.29-.91,3.38-1.47,.11-.05-.16-.84-.26-1.29-1.18,.33-2.36,.67-3.54,1Zm-46.76,91.38c-.29-.67-.47-1.07-.65-1.48-.55,.35-1.14,.64-1.6,1.08-.1,.1,.39,1.07,.48,1.05,.6-.12,1.18-.41,1.77-.65Zm321.87,122.55c-.42,.56-.83,1.12-1.25,1.68,1.11,.75,2.23,1.51,3.34,2.26,.31-.44,.63-.89,.94-1.33-1.01-.87-2.03-1.74-3.04-2.61Zm-164.2-36.73c.62-.13,1.23-.27,1.85-.4-.4-1.21-.8-2.43-1.19-3.64-.38,.09-.75,.18-1.13,.26,.16,1.26,.31,2.52,.47,3.78Zm-32.68-.56c-.38,.1-.76,.21-1.14,.31,.21,1.02,.42,2.03,.64,3.05,.62-.28,1.23-.56,1.85-.84-.45-.84-.9-1.68-1.35-2.52Zm-136.55,32.96c-.37,.23-.75,.47-1.12,.7,.53,1.04,1.07,2.08,1.6,3.12,.54-.37,1.08-.74,1.62-1.11-.7-.91-1.39-1.81-2.09-2.72Zm125.79,35.8c.24-.61,.49-1.22,.73-1.83-1.31-.42-2.62-.83-3.92-1.25-.13,.45-.46,1.25-.36,1.31,1.15,.66,2.36,1.2,3.56,1.78Zm-63.64-126.31c-1.38-1.01-2.03-1.57-2.78-1.93-.1-.05-1.08,1.06-.96,1.33,.31,.72,.9,1.47,1.58,1.8,.33,.16,1.11-.59,2.16-1.21Zm-25.52-130.51c-.32,.15-.63,.3-.95,.44,.4,1.05,.81,2.11,1.21,3.16,.4-.16,.79-.33,1.19-.49-.49-1.04-.97-2.07-1.46-3.11Zm43.1,141.09c-.08-.32-.17-.64-.25-.96-1.28,.25-2.56,.5-3.85,.76,.13,.46,.26,.92,.39,1.38,1.23-.4,2.47-.79,3.7-1.19Zm117.73,121.62c-.46-.06-.91-.12-1.37-.18-.16,.85-.51,1.72-.43,2.55,.06,.64,.66,1.23,1.8,3.16v-5.52Zm-221.53-10.28c-.3,.3-.6,.6-.9,.9,.87,.92,1.73,1.84,2.6,2.76,.4-.49,.8-.98,1.19-1.47-.96-.73-1.93-1.46-2.89-2.19Z"/><path class="cls-1" d="M795.71,1061.06c-2.14,4.73-3.83,8.21-5.29,11.79-1.41,3.45-4,4.63-7.51,4.68-17.49,.28-34.97,.7-52.45,.86-3.1,.03-6.23-.89-9.32-1.48-1.41-.27-2.87-1.36-4.13-1.12-8.02,1.52-15.26-1.65-22.67-3.58-5.53-1.44-10.94-3.3-16.4-5.02-.81-.26-1.52-1.01-2.33-1.11-19.7-2.44-36.95-11.48-53.96-20.71-6.41-3.48-11.19-9.83-17.26-14.11-10.49-7.38-17.89-17.23-25.66-27.26-9.2-11.87-14.2-25.36-20.14-38.63-1.52-3.38-3.13-6.85-5.38-9.75-4.88-6.29-4.52-13.89-6.02-21.05-.76-3.63-.83-7.81-2.75-10.72-5.72-8.7-3.25-18.44-4.24-27.64-1.37-12.78-2.54-25.78-1.64-38.53,.78-11.11-2.34-22.39,1.53-33.31,.27-.77,.15-1.72,.05-2.56-2.19-18.41,3.31-35.92,6.57-53.64,3.8-20.62,12.23-39.5,24.08-56.75,3.35-4.89,7.79-9.03,11.67-13.56,3.89-4.55,7.56-9.29,11.62-13.68,2.11-2.27,4.85-3.97,7.33-5.89,.91-.7,2.07-1.14,2.8-1.98,8.56-9.87,13.02-13.25,24.1-18.46,1.8-.85,3.23-2.42,4.97-3.43,2.69-1.56,5.5-2.89,8.23-4.38,5.21-2.84,10.33-5.84,15.6-8.55,3.59-1.85,6.25-7.02,11.5-3.52,9.97-2.22,20.77-.74,29.89-6.85,5.6-3.76,11.83-4.15,18.31-2.86,1.92,.38,3.92,.72,5.85,.57,10.59-.79,21.16-2.22,31.76-2.45,7.4-.16,14.83,1.3,22.25,1.92,7.1,.6,14.24,.88,21.32,1.65,5.66,.61,11.34,1.45,16.88,2.73,8.05,1.87,16.03,4.08,23.95,6.43,9.9,2.94,19.71,6.18,29.55,9.3,2.46,.78,5.67,.86,7.22,2.5,5.03,5.32,11.76,7.45,18.12,9.6,9.03,3.05,15.55,9.61,23.33,14.35,3.66,2.23,4.26,6.29,3.14,9.99-4.01,13.15-8.7,26.1-12.5,39.31-3.88,13.47-6.87,27.2-10.56,40.73-.94,3.46-2.27,7.53-4.82,9.67-4.28,3.61-9.66,5.92-14.59,8.74-.48,.28-1.25,.59-1.65,.4-6.56-3.18-13.48,1.19-20.34-1.32-5.23-1.91-9.84-4.28-11.88-9.19-3.3-7.92-5.86-16.17-8.22-24.43-.63-2.19,.58-4.91,1.03-7.89-7.45,.24-13.97-2.11-19.47-7.09-.63-.57-1.36-1.14-2.14-1.42-11.23-4.06-22.48-8.06-33.73-12.08-8.33,2.18-16.51-3.18-25.17-.02-3.8,1.38-10-2.48-13.01-.6-4.18,2.61-8.48,3.95-12.77,4.33-10.52,.93-18.01,6.9-26.6,12.15-12.01,7.34-18.57,18.02-23.57,29.68-5.82,13.59-11.5,27.56-10.5,43.11,.36,5.57-.4,11.42-1.81,16.84-3.48,13.38-2.33,27.06-1.54,40.33,1.03,17.07,2.6,34.24,6.14,51.2,2.93,14.04,8.53,26.72,15.65,38.65,6.19,10.37,15.79,17.94,26.74,23.5,2.54,1.29,4.71,3.32,7.28,4.53,3,1.42,6.23,2.39,9.41,3.39,1.88,.59,3.87,.8,5.79,1.29,1.39,.36,2.73,1.27,4.11,1.29,16.82,.31,33.75,5,50.41-1.4,6.12-2.35,13.03-3.3,18.46-6.69,10.31-6.43,21.09-12.79,25.5-25.45,2.44-7.01,5.67-13.74,8.3-20.69,2.06-5.44,12.48-11.68,18.11-10.57,2.21,.44,4.58,.38,6.64,1.16,5.54,2.11,10.98,2.12,16.76,.92,3.81-.79,7.05,2.3,6.5,6.08-1.74,12,3.86,22.46,6.39,33.57,2.35,10.31,4.46,20.68,6.69,31.02,.36,1.68,.74,3.37,1.25,5.01,2.3,7.32,4.77,14.59,6.94,21.95,1.4,4.74-1.71,10.12-7.12,13.34-4.93,2.94-9.58,6.41-14.71,8.93-7.16,3.51-14.88,5.91-21.93,9.59-9.76,5.1-19.98,8.77-30.58,11.42-8.03,2.01-16.14,3.76-24.31,5.08-4.67,.76-9.03-.52-12.15-4.76-1.79-2.42-4.12-4.44-6.93-7.4Zm-227.24-162.59c-4.61-1.76-8.76-3.57-13.06-4.86-1.16-.35-2.79,.86-4.21,1.35,.76,1.37,1.38,2.85,2.35,4.03,.34,.41,1.62,.28,2.38,.07,4.3-1.17,3.89,2.24,4.11,4.5,.12,1.24-1.66,2.81-1.34,3.85,.49,1.61,1.77,3.64,3.2,4.15,2.32,.83,2.49-1.28,2.5-3.12,0-.75,.54-1.5,.84-2.25,.48,.26,.97,.51,1.45,.77,.37,1.71,.74,3.41,1.34,6.18,2.33-2.57,4.06-4.47,7.1-7.81-9.3,1.4-3.93-4.91-6.66-6.86Zm53.21,44.22c-.83-1.26-1.46-2.96-2.01-2.93-6.99,.35-8.84-3.82-9.48-9.75-.39-3.67-2.77-6.04-8.07-6.28,2.16,4.04,3.69,7.66,5.89,10.83,3.3,4.74-1.05,8.41-.84,11.7-2.73,1.61-4.75,2.8-6.68,3.94,1.46,3.88,3.1,3.6,5.46,1.82,4.75-3.59,8.72-8.49,15.72-9.32Zm229.11,92.48c3.84-6.43-2.24-10.06-4.24-14.96,2.78-1.18,5.15-2.56,1.84-6.54-1.73,1.99-3.84,3.71-4.96,5.94-.72,1.43-.55,4.9,.19,5.22,4.66,2.03,4.64,6.7,7.16,10.34Zm11.85-5.09q-.4,7.62,6.33,11.59c.98-8.33,.72-8.8-6.33-11.59Zm-97.67,35.07h10.94c.21-2.18,.38-4.01,.57-5.98q-10.84,1.36-11.51,5.98Zm-174.42-249.25c.59,4.63,1.13,8.79,1.88,14.68,3.94-4.92,.1-10.66,5.2-12.85-.76-1.1-1.42-2.99-2.31-3.11-1.47-.19-3.09,.77-4.77,1.28Zm114.84,189.83c3.22-1.24,5.89-2.27,9.04-3.49-1.54-2.65-2.68-4.63-3.92-6.77-4.5,2.54-5.95,5.43-5.12,10.25Zm-123.11-263.47c-2.34,6.71-1.32,10.99,1.32,11.03,2.04-1.74,3.85-3.29,6.38-5.46-2.68-1.94-4.8-3.47-7.7-5.57Zm237.93,306.79c3.15-7.38,2.76-8.47-4.81-13.66,1.81,5.14,3.08,8.74,4.81,13.66Zm11.14-61.15q-2.29,6.24,5.15,8.1c-2.14-3.37-3.65-5.73-5.15-8.1Zm-114.95,40.13c2.94-2.83,4.3-5.91,4.03-10.39-7.36,5.02-7.42,5.16-4.03,10.39Zm-108.78-45.62c2.37,1.62,4.26,2.92,6.62,4.53,.95-2.32,1.54-3.75,2.12-5.16-2.93-1.85-5.32-3.55-8.74,.62Zm-20.86-57.05c-3.43-.55-6.86-1.1-10.41-1.66q1.14,4.47,10.41,1.66Zm.02,9.63c1.97,5.82,3.56,6.04,8.66,1.77-2.78-.57-5.27-1.08-8.66-1.77Zm295.67,86.02q5.19,5.06,8.72,0h-8.72Zm-90.46,4.69c2.51,3.22,4.57,4.23,7.71,3.07q-2.61-3.98-7.71-3.07Zm-196.22-42.48c.25,.6,.49,1.2,.74,1.8,2.19-.99,4.39-1.97,6.53-3.07,.05-.02-.36-1.68-.88-1.96-3.69-1.99-4.61,1.46-6.39,3.23Zm81.98-242.17c1.41-4.33-.42-6.87-4.42-8.37-2.32,5.01,3.47,5.34,4.42,8.37Zm109.1,319.6c3.13-2.44,3.77-4.52,1.58-6.46-.66-.59-2.41,.04-4.07,.13,.94,2.4,1.63,4.15,2.49,6.34Zm-147.51-44.85c-3.44,3.12-1.71,5.4,.21,8.68,.59-2.34,1.13-3.83,1.27-5.36,.07-.71-.63-1.48-1.49-3.32Zm240.01-16.4c3.73-3.56,3.99-5.55-.51-8.95,.21,3.6,.32,5.58,.51,8.95Zm-35.8-6.57c.72,2.95,1.28,5.23,1.99,8.1,1.9-3.36,5.09-6.31-1.99-8.1Zm-61.71-278.13c-.41-.65-.83-1.31-1.24-1.96-1.29,.91-2.59,1.83-3.88,2.74,.44,.6,1.2,1.76,1.28,1.72,1.33-.74,2.58-1.64,3.84-2.5Zm-149.67,88.03c2.8-2.76,3.45-5.01-1.18-6.32,.48,2.58,.83,4.45,1.18,6.32Zm40.83,233.3c.65,.42,1.3,.84,1.95,1.26,.34-1.04,.94-2.07,.94-3.11,0-.87-.71-1.73-1.11-2.59-.82,.57-2,.97-2.34,1.75-.3,.68,.33,1.78,.56,2.69Zm21.36,3.74c.76,.12,1.51,.23,2.27,.35v-4.83c-.39-.06-.78-.12-1.17-.18-.37,1.55-.73,3.11-1.1,4.66Zm-21.29-71.97c.01-.45,.03-.9,.04-1.35-1.71-.09-3.41-.18-5.12-.26-.02,.54-.03,1.07-.05,1.61h5.13Zm-76.1-21.66c-.69,.28-1.37,.57-2.06,.85,.68,1.37,1.36,2.74,2.04,4.1,.47-.25,1.37-.6,1.34-.72-.36-1.43-.85-2.83-1.31-4.23Zm27.85-40.64c-1.72-1.33-2.99-2.32-4.86-3.77-.49,4.3,.54,5.58,4.86,3.77Zm162.95,99.53c-.58,5.18,.07,6.83,4.97,4.3-1.24-1.07-2.48-2.14-4.97-4.3Zm-111.05,17.64c4.48-1.86,4.5-1.87,3.39-5.22-.09-.27-.83-.33-1.44-.55-.62,1.85-1.22,3.6-1.95,5.77Zm202.55-12.3c.58-.77,1.16-1.54,1.74-2.32-1.37-.71-2.72-1.46-4.14-2.07-.14-.06-1,1.11-.95,1.17,1.07,1.12,2.21,2.16,3.34,3.22Zm-84.39,6.11c.67-.05,1.33-.1,2-.15-.29-1.43-.58-2.87-.87-4.3-.38,.05-.76,.1-1.13,.14v4.31Zm-183.68-258.91c.75-.78,1.5-1.55,2.25-2.33-1.27-.43-2.52-.94-3.82-1.23-.32-.07-.79,.56-1.2,.87,.93,.9,1.85,1.79,2.78,2.69Zm-40.74,66.41c-.59-.42-1.17-.85-1.76-1.27-.96,1.37-1.92,2.73-2.87,4.1,.52,.36,1.04,.73,1.56,1.09,1.02-1.3,2.05-2.61,3.07-3.91Zm71.35,22.48c.46,.47,.93,.94,1.39,1.4,.88-.92,1.75-1.85,2.63-2.77-.61-.46-1.67-1.41-1.77-1.32-.85,.79-1.53,1.76-2.25,2.68Zm238.19,112.58c.6-.85,1.44-1.54,1.32-1.98-.15-.55-1.03-1.13-1.68-1.24-.35-.06-1.3,.93-1.22,1.23,.18,.64,.86,1.14,1.58,1.99Zm-278.94-73.18c.29-.57,.59-1.14,.88-1.71-1.09-.56-2.17-1.17-3.31-1.63-.1-.04-.58,.85-.88,1.31,1.11,.68,2.21,1.35,3.32,2.03Zm65.21,164.38c.56-.26,1.13-.52,1.69-.78-.79-1.59-1.57-3.17-2.36-4.76-.51,.24-1.01,.48-1.52,.72,.73,1.61,1.45,3.22,2.18,4.82Zm-46.69-129.19c-.86-.52-1.5-1.22-2.06-1.16-.64,.07-1.21,.81-1.81,1.26,.77,.62,1.53,1.24,2.3,1.86,.45-.55,.89-1.11,1.58-1.96Z"/><path class="cls-1" d="M1200.71,1044.23c-2.37,7.21-7.29,10.75-15.35,10.25-.68,5.53-4.98,7.42-9.53,8.49-4.31,1.02-7.67,3.51-11.44,5.43-5.42,2.76-11.81,3.62-17.63,5.25-1.8-2.82-3.42-5.34-5.03-7.86-.59,.2-1.19,.4-1.78,.6-.29,2.42-.59,4.85-.96,7.94-2.96,1.2-6.26,3.24-9.81,3.83-5.57,.93-11.3,.9-16.96,1.27-3.94,.26-7.87,.68-11.81,.72-11.09,.11-22.18,.26-33.27,0-5.83-.14-5.82-.52-7.59-5.88-.2,.01-.49-.06-.58,.05-5.38,6.37-12.02,6.69-19.26,3.98-7.51-2.81-14.66-6.69-23.16-6.09-2.41,.17-5.11-.96-7.37-2.1-13-6.61-26.13-13.01-38.73-20.33-5.28-3.07-9.78-7.85-13.88-12.51-6.06-6.87-13.24-13.56-16.75-21.71-7.52-17.48-15.68-34.72-20.28-53.53-5.74-23.51-8.05-47.35-8.91-71.23-.59-16.47,3.57-32.89,7.65-49.05,3.31-13.1,9.99-24.42,17.02-35.6,2.71-4.31,6.25-8.11,9.43-12.13,.36-.45,1.04-.81,1.12-1.3,1.41-7.97,8.54-10.7,13.93-14.79,9.25-7.02,18.58-14.05,28.53-20,5.96-3.56,13.05-5.4,19.81-7.41,5.82-1.72,7.39-.7,10.53,4.32,.99,1.58,2.19,3.02,3.45,4.73,3.87-2.63,3.15-6.01,2.91-8.98-.34-4.2,1.32-6.78,5.33-7.58,4.46-.89,8.98-1.56,13.51-2.09,5.99-.7,12.15-.52,17.97-1.86,13.31-3.06,26.44-4.48,39.58,.48,.53,.2,1.35,.6,1.61,.39,6.8-5.59,13.58,.78,20.51,.29,6.46-.45,13.18,3.27,19.82,5.02,5.01,1.32,10.04,2.59,15.12,3.56,5.44,1.04,10.13,2.92,14.73,6.42,4.66,3.54,10.76,5.26,16.33,7.53,7.03,2.86,12.91,6.58,17.63,13.08,6.13,8.44,14.25,15.41,20.76,23.62,4,5.04,6.59,11.2,9.77,16.88,.54,.97,.72,2.12,1.23,3.12,8.93,17.67,13.72,36.33,14.52,56.17,.41,10.3,2.08,20.54,3.17,30.82,.18,1.7,.24,3.4,.39,5.55-1.81,.21-3.34,.38-4.87,.56,.06,.62-.08,1.31,.2,1.69,5.56,7.57,3.17,15.94,2.46,24.13-.12,1.41-.92,2.81-.83,4.18,1.06,16.64-5.08,31.67-11.25,46.42-6.31,15.11-14.07,29.62-25.6,41.67-1.19,1.24-2.67,2.61-3.04,4.15-1.75,7.3-7.07,9.22-13.57,9.65-.61-2.17-1.23-4.32-1.85-6.48-2.08,3.41,.1,4.79,2.05,6.29Zm-207.1-103.17c.79-1.5,1.57-3,2.97-5.66-5.5,1.77-2.79,4.07-2.73,5.9-3.18,4.64-2.96,5.35,2.24,7.42-.49,1.22-1.04,2.43-1.46,3.67-.21,.61-.2,1.28-.35,2.34,1.97-.31,3.46-.55,6.09-.96-2.04-2.19-3.26-3.51-4.48-4.83-.76-2.62-1.51-5.25-2.27-7.87Zm-18.23-87.7c-1.18,.59-2.36,1.19-3.54,1.78,.57,.87,1.18,2.51,1.7,2.48,2.66-.14,3.22,1.35,3.84,3.48,.5,1.74,1.81,3.26,3.16,5.56,1.72-3.97,3.01-6.95,4.37-10.07-3.57-1.26-6.67-2.36-9.78-3.46q3.15-1.88-1.53-4.96c.73,2.1,1.26,3.65,1.79,5.19Zm163.76,32.73c.32-.11,.65-.23,.97-.34-1.76-6.51-4.55-12.95-5.04-19.56-.86-11.5-4.78-21.87-10.28-31.51-4.64-8.13-12.48-14.56-21.51-16.06-8.38-1.4-16.87-4.09-26.2-1.38-7.55,2.2-15.17,4.21-21.21,8.82-5.07,3.87-11.61,5.95-14.89,12.54-6.57,13.17-9.62,27.06-10.46,41.56-.15,2.52,.94,5.11,.81,7.63-.31,6.33-1.68,12.32-.49,19.05,1.69,9.48,.62,19.45,.62,29.22,0,16.86,2.11,33.39,11.25,47.9,6.67,10.6,13.68,21.77,29.27,19.61,1.08-.15,2.34,.18,3.36,.63,7.8,3.44,15.83,2.64,23.72,.87,15.53-3.49,27.48-11.66,32.68-27.44,4.65-14.13,8.1-28.5,7.24-43.61-.19-3.36,.72-6.78,1.16-10.17,.29-2.27,1.01-4.54,.9-6.79-.51-10.33-1.25-20.65-1.9-30.98Zm72.17-72.48c.05-.73,.1-1.45,.15-2.18-3.83-.75-7.74-1.21-11.46-2.31-5.55-1.63-9.54-.31-13.55,4.06-1.96,2.14-6.18,2.22-10.07,3.45,.72,1.35,1.2,3.84,2.54,4.44,2.7,1.22,5.94,2.11,8.8,1.77,1.96-.23,4.04-3.09,5.9-.69,1,1.29,.37,3.84,.46,5.59,4.32,.34,9.21,3.05,11.63-3.01,.3-4.02-9.11-5.27-2.72-11.14h8.32Zm-219.46,56.39c-1.23,5.11-2.04,8.43-3.04,12.57,8.32-2.31,13.47,2.82,20.64,5.2-.92-2.91-1.58-4.67-2.03-6.48-.4-1.6-1.39-3.98-.7-4.76,3.93-4.46,.03-7.48-1.08-12.42-3.91,4.6-4.62,13.42-13.79,5.89Zm170.03,159.46c1.04-2.63,1.93-4.87,2.82-7.1-2.84-4.27-6.79-8.34-8.4-13.18-1.46-4.39-3.64-4.74-7.1-4.63-.62,5.1-4.57,9.71-1.25,15.25,7.97-1.91,7.92,7.72,13.94,9.66Zm-86.71,25.29c-.66-5.41,3.15-11.04-1.86-15.84-1.87,.77-3.82,1.77-5.89,2.38-1.89,.55-4.76-1.13-5.26,2.46,10.71,4.33,10.67,4.32,9.95,16.24-.13,2.09,.25,4.2,.43,6.9,6.01-2.1,9.75-5.15,13.14-11.11-3.87-.38-6.72-.66-10.51-1.03Zm104.79-18.93c-1.66-3.04-2.99-5.49-5.26-9.65-1.52,6.23-5,6.52-9.4,6.12-4.12-.38-7.62,3.18-8.81,7.24,3.91,.62,7.84,1.24,11.78,1.87,2.21-4.74,7.61-2.82,11.7-5.57Zm-176.36-145.05c-.68-.17-1.37-.34-2.05-.51-1.38,3.24-2.94,6.43-4.11,9.74-1.92,5.43-1.72,5.62,5.49,8.25,1.61-3.17,3.26-6.42,4.88-9.63-1.54-2.86-2.87-5.36-4.21-7.85Zm29.29,129.83c-5.65-.24-6.83,3.88-9.15,8.14,7.9,1.66,8.94,7.01,7.03,14.54,3.02-2.11,4.76-3.33,5.12-3.58,4.6-8.18-5.55-11.75-3.01-19.09Zm133.3-2.79c6.03-3.06,11.51-6.56,15.74,.52,3.62-1.56,6.63-2.85,11.37-4.89-3.18-1.63-4.97-3.3-6.79-3.34-5.41-.11-10.84,.28-16.24,.76-3.2,.29-5.38,1.82-4.08,6.95Zm-167.38-48.14c-6.74,1.52-5.68,7.57-8.95,11.78,3.18,.76,5.46,1.31,7.63,1.83,2.98-5.68,3.11-6.94,1.32-13.61Zm204.54-170.59c-2.11,1.5-3.85,2.73-6.28,4.45,7.96,4.18,15.5,1.7,22.8,2.41-2.4-1.63-5.6-3.89-7.43-3.08-4.68,2.08-6.91-.11-9.09-3.78Zm-120.92,234.34c-.1-.99-.19-1.97-.29-2.96-4.59,.49-9.17,.98-14.26,1.53v4.62c1.41-.32,2.82-.63,4.23-.96,1.7-.4,3.39-.85,5.09-1.22,1.73-.38,3.48-.68,5.22-1.01Zm139.87-181.39c.18,0-.37-.15-.5,.02-3,4.02-3.58,8.53-2.91,14.31,2.62-1.97,4.56-3.43,6.37-4.8-1.06-3.41-1.97-6.33-2.97-9.53Zm-193.01,151.85c-2.92,5.02-6.31,8.6-3.11,13.89,6.52-4.1,6.73-4.92,3.11-13.89Zm135.83,55.24c.66-3.63,1.32-7.25,2.03-11.16-8.4,1.56-8.66,2.5-2.03,11.16Zm-15.11-14.55c1.12-2.02,2.41-3.27,2.32-4.41-.35-4.45-2.48-7.65-8.08-9.13,2.03,4.77,3.63,8.54,5.75,13.54Zm66.41-151.71c-.47,5.27,2.92,7.55,6.14,11.51v-12.78c-1.66,.35-3.55,.74-6.14,1.28Zm-119.21,136.04c5.49-9.38,5.44-10.96,0-14.28v14.28Zm-58.9-29.75c2.92,2.22,4.7,3.57,8.1,6.15-.29-5.17-.46-8.14-.63-11.1-.75-.31-1.49-.62-2.24-.93-1.43,1.6-2.86,3.21-5.24,5.88Zm18.26,66.85c.33,.31,.67,.63,1,.94,2.94-1.42,5.87-2.84,8.96-4.34-.82-1.94-1.53-3.65-2.94-7.02-2.9,4.31-4.96,7.36-7.02,10.41Zm140.03-126.3c2.3-2.52,4.37-3.8,4.67-5.41,.31-1.63-.77-3.78-3.73-2.84-1.17,.37-2.71-.45-5.17-.94,1.45,3.16,2.37,5.15,4.22,9.19Zm-173.78,97.94c-1.55-1.11-3.07-2.2-5.9-4.23,.9,4.78-4.24,7.85-.1,11.62,2.09-2.57,3.91-4.82,5.99-7.39Zm26.09,10.48c1.09,6.59,2.4,8.7,6.05,9.12,2.06,.23,4.24-.16,3.5-2.85-3.17-2.08-6.04-3.97-9.55-6.27Zm-89.22-45.75c.55,6.64,2.13,9.07,5.16,7.87,.63-1.51,1.44-3.43,2.36-5.62-2.65-.79-4.75-1.42-7.52-2.25Zm269.8-96.46c-.67,.18-1.35,.37-2.02,.55q.26,9.83,7.02,12.61c2.58-4.87-4.08-2.5-4.17-5.35-.08-2.61-.53-5.21-.82-7.82Zm-51.46,93.06q4.29,4.77,11.22,.71c-3.51-1.16-6.76-4.42-11.22-.71Zm-160.12-68.23c.77-5.15-2-8.09-5.01-10.91,.09,4.16-1.09,8.91,5.01,10.91Zm-84.78,5.66c-2.81,1.32-4.74,2.23-8.68,4.09,4.23,1.34,6.52,2.07,9.63,3.06-.39-2.9-.57-4.29-.95-7.15Zm106.95,122.76c2.36,1.59,3.85,2.58,5.35,3.58,.87-1.55,1.87-3.05,2.53-4.69,.19-.47-.6-1.33-1.14-2.43-2.05,1.07-3.9,2.04-6.74,3.53Zm136.24-258.1c3.66-4.27,2.85-7.48,.29-11.22-3.26,3.81-1.96,7.01-.29,11.22Zm-240.97,115.19c-5.33,2.76-5.55,5.04-3.56,7.41,.59,.71,2.34,.45,3.56,.63v-8.04Zm139.5,103.52c-5.12,1.68-5,4.34-2.56,7.07,.71,.79,2.83,.31,4.63,.44-.73-2.66-1.31-4.74-2.07-7.51Zm-5.91-230.05c4.02-.64,6.5-1.04,8.97-1.43,.02-.58,.05-1.17,.07-1.75-2.03-1.05-4.07-2.11-6.52-3.38-.79,2.04-1.28,3.33-2.52,6.56Zm134.55,231.84c-1.39-1.32-2.25-2.78-3.14-2.8-1.01-.02-2.05,1.25-3.07,1.95,.98,1.18,1.83,2.53,3.03,3.4,.24,.18,1.78-1.4,3.19-2.55Zm32.66-151c-3.36,.32-6.27,.61-9.55,.92,4.32,4.71,5.49,4.6,9.55-.92Zm-131.73-61.01c-.48-3.58-.8-5.96-1.12-8.35-.65,.08-1.3,.16-1.95,.24-.14,2.55-3.63,5.4,3.07,8.11Zm87.35,179.25c1.69-3.19,2.46-4.66,3.24-6.13-1.28-.62-2.56-1.23-4.85-2.33,.55,2.92,.88,4.62,1.61,8.46Zm-206.37,3.35c-3.44,2.54-2.33,4.64,.21,7.22,2.34-2.77,3.45-4.96-.21-7.22Zm238.8-179.83c-.75,.03-1.51,.06-2.26,.1,.16,2.1,.32,4.2,.48,6.29,.6-.04,1.19-.09,1.79-.13v-6.26Zm-201.6,39.98q1.51-4.01-1.8-5.66c.66,2.07,1.23,3.87,1.8,5.66Zm-83.97,1.35c-3.69-.88-4.81,.31-4.42,2.75,.19,1.17,1.15,2.23,2.37,4.44,.86-3.02,1.37-4.81,2.05-7.2Zm-12.46,12.5c1.25-1.78,2.48-2.78,2.5-3.79,.02-.95-1.26-1.92-1.96-2.88-.93,.87-2.39,1.61-2.64,2.65-.2,.87,1.01,2.07,2.1,4.03Zm72.66-99.83c1.14,2.47,2.33,4.94,6.15,3.81-1.01-3.43-2.63-5.01-6.15-3.81Zm179.55,212.66c-.31,.65-.62,1.29-.94,1.94,1.44,.59,2.89,1.19,4.33,1.78,.39-1.14,.78-2.28,1.26-3.72h-4.66Zm-219.43,17.59c1.39,1.04,2.38,2.26,2.92,2.08,.87-.28,1.89-1.43,1.99-2.32,.1-.8-.94-1.74-1.47-2.62-.97,.8-1.93,1.6-3.45,2.86Zm101.58,39.32c.7,0,1.41-.01,2.11-.02,1.06-2.26,1.54-4.46-2.11-6.8v6.82Zm20.23,37.72c.44,.07,.87,.14,1.31,.2,.33-2.12,.67-4.24,1-6.36-.39-.06-.79-.12-1.18-.18-.38,2.11-.75,4.22-1.13,6.33Zm-30.99-48.64c-.48,1.82-.97,3.64-1.7,6.39,4.53-1.76,3.41-4,1.7-6.39Zm-24.65-62.44c-1-.69-1.72-1.46-2.57-1.65-.34-.08-1.5,1.3-1.36,1.69,.31,.87,1.2,1.53,1.85,2.27,.55-.61,1.09-1.22,2.08-2.32Zm-56.36,4.71c1.24-1.93,4.52-3.73,0-6.71v6.71Zm254.18-52.17c-.44-.66-.89-1.31-1.33-1.97-1.28,1.06-2.57,2.12-3.85,3.18,.27,.4,.54,.81,.82,1.21,1.46-.81,2.91-1.62,4.37-2.42Zm-266.44-11.65c-.6-.42-1.21-.83-1.81-1.25-.75,1.39-1.52,2.76-2.18,4.19-.05,.11,.74,.6,1.14,.92,.95-1.29,1.9-2.57,2.85-3.86Zm38.83-9.54c.67-.04,1.35-.09,2.02-.13-.11-1.96-.22-3.93-.34-5.89-.65,.03-1.3,.07-1.95,.1,.09,1.97,.18,3.95,.26,5.92Zm-12.4-12.06c.45-.06,.89-.13,1.34-.19-.28-1.83-.56-3.66-.84-5.5-.17,.03-.33,.06-.5,.09v5.59Zm-5.56,122.4c-2.76-.88-3.8-1.59-4.55-1.36-.94,.29-1.65,1.35-2.46,2.08,.23,.39,.46,.78,.69,1.17,1.5-.45,2.99-.89,6.32-1.88Zm36.34-29.85c-.62,.2-1.24,.41-1.86,.61,.66,2.01,1.31,4.02,1.97,6.03,.64-.21,1.27-.42,1.91-.63-.67-2.01-1.34-4.01-2.01-6.02Zm-48.33,48.49c.4-.23,.79-.46,1.19-.68-.58-1.27-1.16-2.54-1.74-3.82-.65,.33-1.29,.65-1.94,.98,.83,1.17,1.66,2.35,2.49,3.52Zm17.18-210.37c.4-.06,.81-.12,1.21-.17v-4.44c-.4,.01-.81,.02-1.21,.03v4.58Zm235.31-.99c-.45-.14-.91-.27-1.36-.41-.53,1.25-1.06,2.49-1.59,3.74,.73,.24,1.46,.47,2.19,.71,.25-1.35,.51-2.69,.76-4.04Zm-84.79,15.57c-.63-.14-1.26-.29-1.89-.43-.38,1.21-.81,2.41-1.08,3.64-.03,.13,.88,.46,1.35,.7,.54-1.3,1.08-2.6,1.62-3.9Zm-123.45,186.1q-4.2,1.2-1.3,4.07c.44-1.37,.83-2.6,1.3-4.07Zm201.14-78.01c-.57-.2-1.14-.39-1.71-.59-.5,1.48-1,2.96-1.5,4.44,.55,.19,1.11,.38,1.66,.57,.52-1.47,1.03-2.95,1.55-4.42Zm-17.95,3.7c-.44,.03-.88,.06-1.32,.1,.21,1.38,.41,2.77,.62,4.15,.23-.03,.47-.06,.7-.09v-4.16Zm-162.13,115.46c2.7-1.89,4.13-3.1,1.09-6.2-.43,2.43-.68,3.87-1.09,6.2Zm-96.21-170.07c-.36-.03-.72-.06-1.08-.08-.21,1.41-.42,2.83-.63,4.24,.45,.06,.89,.11,1.34,.17,.13-1.44,.25-2.89,.38-4.33Zm58.3,3.73c-.91-1.06-1.37-1.6-1.82-2.13-.75,.65-1.57,1.26-2.2,2.01-.08,.1,.84,1.45,1.18,1.41,.86-.12,1.65-.71,2.83-1.29Zm59,122.09c.75-.08,1.51-.15,2.26-.23-.38-1.37-.76-2.74-1.14-4.11-.51,.12-1.02,.23-1.52,.35,.13,1.33,.27,2.66,.4,3.99Zm-42.84,33.37c.17-.36,.35-.72,.52-1.07-1.2-.75-2.41-1.5-4.82-3,1.01,1.93,1.19,2.77,1.7,3.12,.73,.51,1.71,.65,2.59,.96Zm95.8-1.09c.63,.21,1.26,.42,1.89,.63,.51-1.39,1.03-2.78,1.54-4.17-.97-.19-1.93-.38-2.9-.57-.18,1.37-.36,2.74-.54,4.11Z"/><path class="cls-1" d="M1294.07,426.1c4.91,4.09,4.25,9.06,4.29,13.45,.12,13.66-.39,27.33-.47,40.99-.04,7.1-2.14,12.5-8.68,16.51-7.03,4.32-12.81,10.82-20.04,14.66-9.55,5.07-19.68,9.91-30.14,12.11-6.79,1.43-12.63,4.9-19.42,6.12-5.88,1.05-11.54,2.72-17.68,3.09-11.99,.73-23.9,2.67-35.85,4.1-1.15,.14-2.32,.46-3.44,.36-8.54-.78-17.08-1.64-25.62-2.48-2.28-.22-4.58-.85-6.82-.65-9.94,.88-19.54-1.59-28.78-4.2-9.83-2.78-20.18-3.71-29.49-8.83-13.95-7.68-28.31-14.59-39.64-26.18-3.03-3.1-4.71-6.09-1.4-10.52,1.65-2.21,2.21-5.99,1.77-8.83-.55-3.56-5.3-4.81-10.29-3.51-7.79,2.04-8.24,1.55-11.84-5.2-7.34-13.75-12.27-28.09-13.29-43.8-.76-11.67-3.6-23-3.39-35,.2-11.91-.51-24.01-.84-36.02-.09-3.36-1.75-6.73-1.62-10.05,.39-9.66,.96-19.34,2.16-28.92,1.06-8.48,3.01-16.84,4.62-25.24,2.52-13.13,8.51-24.67,16.31-35.37,1.52-2.09,3.02-4.23,4.27-6.49,6.11-11.04,15.56-18.55,25.95-25.22,3.83-2.46,7.11-5.77,10.7-8.62,1.34-1.06,2.74-2.11,4.26-2.85,5.92-2.88,12.04-5.37,17.82-8.48,7.52-4.05,15.78-4.89,23.92-6.32,8.98-1.58,18-2.89,27.02-4.19,2.27-.33,4.63,0,6.91-.25,4.8-.52,9.57-1.33,14.37-1.82,3.71-.38,7.51-.95,11.16-.52,6.22,.73,12.35,2.19,18.53,3.32,1.7,.31,3.53,1.01,5.11,.67,8.21-1.73,15.53,2.3,23.3,3.3,2.42,.31,4.83,.63,7.23,1.06,1.38,.25,3.05,.33,4.04,1.15,6.59,5.43,14.96,6.48,22.4,9.71,7.46,3.24,16.05,5.28,21.22,13.13,2.76,4.19,7.82,6.8,11.07,10.76,5.09,6.21,9.56,12.94,14.23,19.49,8.55,11.99,11.46,26.15,14.43,40.08,1.65,7.76,1.47,15.98,1.48,23.99,0,9.43-.53,18.88-1.12,28.3-.23,3.68-1.21,7.32-1.95,10.96-.22,1.1-1.43,2.53-1.07,3.14,3.35,5.66-.21,10.53-1.49,15.67-.69,2.75-.68,5.81-1.93,8.24-1.66,3.23-3.64,7.39-6.55,8.63-5.11,2.17-11,3-16.63,3.34-9.04,.55-18.14,.26-27.21,.32-2.29,.02-4.83,.69-6.82-.08-9.53-3.68-19.24-2-28.96-1.82-10.22,.2-20.46-.34-30.69-.51-7.7-.12-15.4-.16-23.09-.24-8.5-.09-17.01-.49-25.5-.19-8.6,.3-17.22,1.01-25.76,2.09-4.91,.62-6.03,4.16-4.62,9.93,1.5,6.1,2.56,12.31,3.64,18.5,.17,.99-.53,2.13-.83,3.2,1.84,.64,4.48,.7,5.4,1.99,9.1,12.83,21.17,21.52,36.03,26.27,4.86,1.55,10.01,2.31,15.08,3.05,5.1,.75,10.58,.12,15.3,1.79,3.92,1.39,7.68,1.41,10.7,.04,5.32-2.41,10.57-1.89,15.94-1.76,.85,.02,1.95,.67,2.5,.33,8.02-4.97,17.39-2.8,25.86-5.03,6.77-1.79,13.2-4.86,19.76-7.4,1.61-.62,3.1-1.64,4.75-2.08,11.76-3.08,22.98-7.5,33.74-13.15,1.75-.92,3.76-1.32,5.73-1.99Zm-186.71-62.37c-2.71,1.62-3.9,3.44,.11,6.93-.16-3.14-.26-5.14-.33-7.13,2.32-.02,5.15,1.21,6.44-2.42-3.18-.93-5.27-.41-6.22,2.61Zm30.96-96.26c-.8,1.07-.68,3.76-4.7,4.23-3.75,.44-7.21,4.12-10.59,6.66-1.3,.98-1.75,3.12-3.07,4.05-8.39,5.91-11.08,14.98-13.74,24.09-.88,3.01-1.51,6.11-2.66,9.01-2.39,6.01-.77,9.52,5.45,10.36,7,.94,13.79,1.81,21.16,.44,8.76-1.62,18.03-.75,27.07-.5,8.31,.23,16.57-.53,24.98,1.29,6.48,1.41,13.59-.29,20.42-.16,6.97,.13,11.24-2.79,10.18-9.24-.79-4.83,.64-8.29,2.63-11.28-1.72-5.25-3.85-9.73-4.6-14.44-1.88-11.87-11.17-17.07-19.93-22.32-4.45-2.67-10.12-3.93-15.38-4.45-5.82-.57-11.79,.38-17.69,.77-6.23,.41-12.45,.95-19.52,1.49Zm82.95,211.96c-7.63,4.14-7.73,5.48-1.06,10.9,7.03-3.72,14.48-1.38,21.76-1.51-3.14-3.38-3.16-3.74-7.41-3.54-5.57,.27-10.16-1.11-13.29-5.85Zm-69.19-7.66c-.26-2.83-.51-5.66-.76-8.4q-8.84-1-11.29,4.51c5.51-2.57,9.22-1.08,12.04,3.89Zm87.37,27.25c1.05,4.43-3.54,9.92,2.74,13.17,2.98-8.1,2.8-9.3-2.74-13.17Zm-107.67,3.38c1.58-1.76,2.4-2.98,3.51-3.82,1.07-.81,2.45-1.21,4.57-2.2-5.37-1.83-9.31-2.47-12.75,1.9,1.72,1.51,3.19,2.81,4.67,4.12Zm-13.22-33.58c.21-3.83,.33-6.22,.57-10.51-3.74,2.88-6.04,4.66-9.38,7.23,3.3,1.23,5.28,1.96,8.82,3.28Zm132.51-8.21c1.26,3.91,2.21,6.83,3.15,9.75,.43-3.42,5.38-7.87-3.15-9.75Zm-74.73,30.59c-.79-5.01-4.09-4.79-7.41-5.71-.35,6.75,3.72,5.3,7.41,5.71Zm-3.82-26.22c-.8,.38-1.59,.76-2.39,1.14,1.2,2.66,2.41,5.32,4.02,8.89,4.53-6.05-1.96-6.73-1.63-10.02Zm-148.04-24.53c.94-.14,1.88-.27,2.82-.41-.35-2.45-.71-4.9-1.06-7.35-.59,.06-1.17,.11-1.76,.17v7.59Zm196.36-122.99c1.97,3.23,3.2,5.25,4.43,7.28q.36-6.32-4.43-7.28Zm-162.48,144.21c-2.93,2.76-4.22,3.98-6.2,5.85,2.56,.75,4.25,1.24,6.2,1.82v-7.67Zm189.58-223.58c.99-.37,1.99-.75,2.98-1.12-.63-1.85-1.25-3.7-1.88-5.55-1.01,.37-2.92,.96-2.89,1.09,.44,1.89,1.14,3.73,1.78,5.58Zm-201.37,225.73c-1.46,1.55-2.98,2.44-2.97,3.32,0,1.04,1.2,2.76,2.12,2.93,1,.19,2.27-1.05,3.43-1.67-.72-1.29-1.45-2.57-2.57-4.58Zm162.09,7.78c-.16,3.18-.32,6.37-.48,9.55,4.63-3.1,2.36-6.36,.48-9.55Zm34.41-100.91c-.42-.79-.84-1.59-1.26-2.38-1.53,.79-3.07,1.58-4.6,2.36,.54,.86,1.43,2.52,1.56,2.46,1.5-.66,2.89-1.59,4.3-2.44Zm-14.75-7.17c-5.12-2.72-5.86,.41-6.89,2.93-.11,.27,.44,.81,.89,1.56,1.73-1.3,3.42-2.56,6-4.48Zm-80.51,145.1c1.27-3.36,1.95-5.17,3.08-8.15-5.18,1.08-6.08,2.87-3.08,8.15Zm135.3-188.32c1.97-1.51,3.17-2.42,5.68-4.34-3.44-.23-5.14-.34-7.47-.49,.66,1.77,1.02,2.76,1.79,4.83Zm-196.92,166.14c.7,.39,1.41,.79,2.11,1.18,1.95-1.55,3.12-3.46,2.1-8.16-1.93,3.2-3.07,5.09-4.21,6.98Zm-9.24,.2q-3.19,3.84-1.03,8.63c.46-3.88,.74-6.26,1.03-8.63Zm201.93-199.2c1.1-2.25,2.3-4.01,2.03-4.28-.98-.96-2.45-1.42-5.03-2.72,1.25,2.9,1.85,4.32,3,7Zm-122.67,222c.49-.33,.99-.67,1.48-1-.99-1.41-1.98-2.81-2.97-4.22-.44,.3-.88,.6-1.32,.9,.94,1.44,1.87,2.88,2.81,4.32Zm-134.24-126.11c.66-.38,1.31-.77,1.97-1.15-.73-1.27-1.45-2.54-2.18-3.82-.64,.46-1.9,1.17-1.83,1.32,.55,1.27,1.33,2.44,2.05,3.64Zm263.15-77.86c.5,.04,.99,.08,1.49,.12,.18-1.57,.35-3.13,.53-4.7-.58-.05-1.17-.09-1.75-.14-.09,1.57-.18,3.15-.27,4.72Zm-76.78,158.1c-.46,.45-.93,.89-1.39,1.34,.93,1.08,1.83,2.19,2.87,3.16,.08,.08,1.1-.85,1.69-1.31-1.05-1.06-2.11-2.12-3.16-3.18Zm-65.53,17.8c.35,.08,.69,.15,1.04,.23,.44-1.57,.88-3.15,1.32-4.72-.52-.12-1.05-.23-1.57-.35-.26,1.61-.52,3.23-.79,4.84Zm142.48-153.2c.49,.48,.98,.96,1.47,1.44,.99-1.12,1.98-2.24,2.97-3.36-.38-.34-.76-.69-1.15-1.03-1.1,.98-2.19,1.97-3.29,2.95Zm-78.61-84.75c.84-1.14,1.61-1.86,1.9-2.73,.11-.34-1.09-1.57-1.26-1.48-.86,.4-1.74,1.01-2.25,1.78-.16,.24,.78,1.22,1.61,2.44Zm67.6,18.36c-1.19-.54-1.9-1.14-2.43-1.02-.68,.16-1.23,.91-1.83,1.41,.49,.56,1.19,1.68,1.44,1.59,.87-.31,1.58-1.05,2.82-1.98Zm-228.71,32.94c-.34-.22-.67-.43-1.01-.65-.45,.32-1.28,.63-1.29,.97-.03,.75,.35,1.52,.57,2.27,.58-.87,1.15-1.73,1.73-2.6Zm162.42,195.97c-.67-1.23-1.03-1.89-1.39-2.55-.85,.53-1.86,.94-2.48,1.67-.2,.23,.6,1.9,.98,1.91,.85,.03,1.72-.57,2.88-1.03Zm81.44-34.43c.18-.75,.36-1.51,.54-2.26-1.42-.16-2.83-.35-4.26-.43-.07,0-.35,1.36-.26,1.39,1.3,.5,2.64,.89,3.98,1.3Zm-122.49-91.35c.51,.15,1.03,.29,1.54,.44,.56-1.81,1.13-3.62,1.69-5.44-.51-.15-1.02-.29-1.53-.44-.57,1.81-1.13,3.62-1.7,5.44Z"/><path class="cls-1" d="M1646.16,1067.86c-1.13,1.45-1.89,3.49-3.15,3.88-11.74,3.63-23.58,6.78-36.06,4.26-.28-.06-.54-.34-.79-.33-9.8,.59-19.67,.66-29.38,1.97-11.94,1.61-23.34,.85-34.41-4.01-.91-.4-2.09-.15-3.15-.22-6.5-.41-13.01-.63-19.47-1.35-2.47-.28-4.85-1.63-7.2-2.64-6.59-2.83-12.92-6.68-19.79-8.36-6.96-1.71-9.63-5.49-10.13-11.93-.11-1.39-.36-2.77-.64-4.81-1.63,.08-3.11-.22-4.24,.28-7.98,3.49-13.07-1.1-17.97-6.23-2.75-2.88-5.61-5.71-8.03-8.85-3.14-4.07-6.21-8.24-8.75-12.7-3.53-6.2-5.95-13.11-10-18.92-2.52-3.62-1.08-7.96-4.34-11.56-2.76-3.06-2.93-8.48-4.19-12.87-2.19-7.63-4.34-15.28-6.53-22.91-.31-1.08-1.23-2.21-1.05-3.18,2.7-14.99-.87-29.73-1.61-44.58-.26-5.1,.56-10.26,1-15.38,.44-5.14,.65-10.35,1.63-15.39,2.11-10.8,3.96-21.72,7.21-32.19,3.99-12.85,9.18-25.35,14.15-37.87,.76-1.92,3.33-3.04,4.75-4.79,3.28-4.01,6.36-8.18,9.55-12.26,1.41-1.8,2.55-4.41,4.41-5.16,6.62-2.67,9.85-8.93,14.92-13.19,5.93-4.97,11.75-9.51,19.77-11.23,5.12-1.1,9.47-5.45,14.57-7.09,7.56-2.42,15.44-3.89,23.24-5.46,6.9-1.39,13.85-2.76,20.85-3.4,9.11-.84,18.69,.54,27.33-1.77,9.93-2.65,19.27,3.63,28.75-.1,11.45,2.47,22.86,5.12,34.35,7.36,7.06,1.38,13.83,3.18,20.53,6.01,6.19,2.62,9.65,5.75,8.56,12.73-.16,.99,.43,2.1,.85,3.9,1.67-.9,2.94-1.39,3.97-2.18,3.21-2.47,6.59-2.33,9.67-.23,3.75,2.57,7.27,5.51,10.7,8.5,4.28,3.73,8.37,7.69,12.56,11.54,6.27,5.75,9.7,13.31,13.18,20.8,8.54,18.37,10.56,38,10.62,57.92,.01,5.11-1.11,10.22-1.78,15.33-.19,1.41-1.01,2.84-.87,4.19,.49,4.83,2.8,10.09,1.53,14.3-1.41,4.64-3.25,9.02-3.36,14-.18,8.21-4.88,14.58-9.31,20.92-1.01,1.45-3.36,2.74-5.12,2.77-15.14,.26-30.12,3.04-45.47,.68-12.45-1.91-25.27-2.44-37.99-.33-3.87,.64-8.01-.42-12.03-.48-11.68-.16-23.37-.04-35.05-.36-9.72-.26-19.43-1.12-29.15-1.47-6.89-.25-13.79-.13-20.68-.07-3.82,.03-5.99,1.81-5.53,5.94,.5,4.52,.43,9.19,1.6,13.53,2.63,9.71,6.28,18.94,12.5,27.19,4.4,5.84,10.12,9.74,16.33,12.34,10.13,4.24,20.55,7.42,31.84,8.6,13.64,1.42,26.94,.92,40.19-1.62,13.51-2.59,26.98-5.61,40.23-9.3,7.66-2.13,14.92-5.81,22.23-9.07,6.25-2.79,12.34-5.94,18.47-8.99,8.8-4.38,16.2,.37,16.15,10.2-.06,10.92,.31,21.84,.17,32.75-.04,3.28-1.06,6.58-1.85,9.81-.33,1.37-1.62,2.55-1.8,3.9-1.82,13.84-11.91,19.56-23.31,24.11-2.91,1.16-5.81,2.43-8.51,4.01-10.03,5.85-20.72,9.69-32.23,11.34-2.19,.32-4.27,1.45-6.4,2.2-3.09,1.08-5.68,.75-7.05-2.42Zm-181.17-232.75q2.41-5.23-1.59-8.75c.65,3.45,1.15,6.09,1.65,8.73-1.77,2.37-1.02,3.96,2.14,5.45,.06-1.41,.44-2.56,.06-3.33-.42-.86-1.54-1.37-2.27-2.1Zm187.42,74.35l-.19-.25c1.69,2,3.38,4,5.71,6.75-1.63,3.23-3.48,7.8,.39,12.79,1.75-7.09,8.52-12.6,3.73-20.96-3.62-6.31-5.98-13.39-14.03-16.91-.79,.32-2.41,1.54-3.93,1.42-1.7-.13-4.04-1.09-4.76-2.42-.73-1.33-.48-4.63,.49-5.23,7.41-4.65,4.7-12.03,6.34-18.55-10.21-.58-3.11,7.81-6.22,10.22-4.28,1.26-8.25,2.43-12.01,3.54q.61,5.78-1.65,9.26c-.59-1.65-1.09-3.06-1.71-4.8-5.03,12.18-2.34,21.06,7.38,24.88-.13,2.02-.26,4.09-.33,5.22,3.92,1.38,6.97,3.23,10.07,3.32,3.16,.1,6.36-1.53,10.05-2.54,.72-1.43-3.81-4.32,.68-5.75Zm-17.05-38.73c.59-2.76,1.47-6.29,2.06-9.86,.42-2.54,.37-5.15,.66-7.72,.91-7.91-.35-15.25-4.14-22.44-5.94-11.25-16.39-16.37-27.12-21.26-1.1-.5-2.82-.7-3.82-.18-4.52,2.35-8.77,1.03-13.34,.1-4.1-.84-8.56-.96-12.69-.31-4.49,.7-9.01,2.18-13.12,4.15-8.31,3.98-16.79,7.19-23.08,15.11-8.76,11.02-13.37,23.1-14.58,36.79-.24,2.73,.44,5.22,3.97,5.48,5.72,.42,11.62,2.01,17.13,1.12,14.98-2.41,29.93-.92,44.89-.96,14.01-.04,28.02,0,43.19,0Zm-15.98,188.92c-.12,2.03-.39,3.21-.22,4.32,.6,4,3.54,4.84,6.95,4.73,3.28-.11,5.26-1.04,4.8-5.22-.42-3.87,4.19-4.93,5.94-4.34,9.52,3.22,12.27-1.86,13.58-9.7,.32-1.92,1.48-3.7,2.23-5.55,.3-.75,.53-1.53,.88-2.55-1.45-.99-2.79-1.9-3.87-2.64-1.34,1.07-2.38,1.89-3.85,3.06q-.47-6.72,3.74-10.4c-3.61-7.74-3.6-7.7-12.5-6.34-.88,.13-2.37-.32-2.76-.99-3-5.11-6.13-2.11-9.89-.56,2.09,1.65,3.68,2.9,5.39,4.24-1.27,1.46-2.08,2.39-3.45,3.95,3.78,.3,6.82,.53,10.04,.79-2.28,4.48-4.31,8.46-6.66,13.08-1.07-2.41-1.96-4.43-3.4-7.67-2.06,3.84-4.81,6.61-4.69,9.24,.25,5.37,2.04,10.68,3.2,16.02-2.7,.28-3.81-.35-5.47-3.46Zm49.09-165.66c.44-.44,.88-.89,1.32-1.33-2.49-3.63-5.16-7.15-7.39-10.93-1.36-2.3-2.99-5.09-2.77-7.5,.18-1.98,3.17-3.56,4.44-5.61,.89-1.44,.96-3.37,1.4-5.08-1.55-.38-4.32-1.35-4.46-1.06-1.84,3.84-5.89,3.4-8.76,5.09-1.72,1.01-3.63,3.64-3.53,5.43,.29,4.95,.88,10.14,2.82,14.6,.8,1.83,5.4,1.95,8.22,2.97,2.93,1.06,5.8,2.26,8.7,3.4Zm-61.91-.84c-3.49,5.15-6.42,9.46-9.97,14.7,8.14,.82,8.3,6.67,9.3,12.22,1.19-2.58,2.24-5.04,2.11-7.44-.12-2.29-2.89-4.89,1.99-5.89,.75,1.55,1.47,3.06,2.7,5.62,1.28-2.9,2.06-4.67,3.41-7.7-7.21-.5-2.7-9.87-9.54-11.51Zm94.85-17.44c-2.45,5.37-2.13,10.72-.48,16.22,1.81,6.06,1.71,6.09,8.77,5.66,.85-2.95,1.69-5.9,2.69-9.36-10.05,.96-4.68-10.28-10.98-12.52Zm-9.34-1.03c-2.89,5.28-7.21,9.49-6.77,15.93,.45,6.57,6.23-.55,7.64,3.28,.08,.21,2.91,.03,3.42-.7,.58-.82,.46-3.24-.17-3.63-4.92-3.02-3.93-7.56-3.6-12.03,.07-.93-.34-1.9-.53-2.85Zm-127.12,184.1c7.57-4.83,4.24-11.58,5.34-18.03-4.5,1.85-8.05,3.3-11.55,4.74,2.19,4.68,3.83,8.18,6.22,13.29Zm116.83-36.84c.84-4.57,1.78-7.57,1.78-10.57,0-1.47-1.53-3.85-2.77-4.16-1.31-.33-4.14,1.01-4.5,2.17-.66,2.19-.6,5,.24,7.12,.75,1.88,2.97,3.18,5.25,5.44Zm-33.98-3.83c.68-.12,1.37-.25,2.05-.37,.83-3.63,1.66-7.26,2.82-12.3-2.91,1.94-4.44,2.95-5.78,3.84-1.96-1.64-3.51-2.95-5.64-4.74-4.33,9.13,5.85,8.54,6.55,13.57Zm-87.07-123.87c4.95,1.31,8.72,2.31,12.5,3.31-2.23-4.53,.38-10.73-5.38-12-2.02,2.47-3.9,4.76-7.11,8.69Zm-77.3-13.97c2.44-.13,4.42-.23,6.86-.36-1.74-4.02,5.2-9.66-2.51-12.65-1.45,4.33-2.78,8.32-4.35,13.01Zm-6.88,24.77c.69-.18,1.38-.35,2.07-.53-.34-2-.69-5.73-1.02-5.73-5.2,.02-3.23-3.56-3.16-6,.06-1.91,.53-3.82,.82-5.73-.64-.12-1.28-.25-1.92-.37-1.08,3.89-2.16,7.77-3.22,11.62,2.27,2.38,4.35,4.56,6.44,6.75Zm210.25-53.49c-3.26-2.26-6.08-4.22-9.62-6.68-.86,3.28-1.4,5.34-2.38,9.1,4.47-3.48,7.79,4.13,12.01-2.43Zm-246.14,16.27c-1.54,2.89,.28,6.51,2.21,5.39,3.79-2.18,5.4,2.22,8.26,1.65q-.97-8.09-10.47-7.05Zm257.86,38.5c-2.65-3.45-5.68-2.74-6.9-.68-1.15,1.94-4.84,4.8-.02,8.27,2.38-2.61,4.68-5.14,6.92-7.6Zm-179.88-117.59c-.68-.36-1.35-.73-2.03-1.09-1.3,1.81-3.23,3.49-3.65,5.48-.25,1.17,1.92,2.84,3.01,4.29,1.09-1.3,2.65-2.45,3.14-3.95,.45-1.38-.26-3.14-.46-4.73Zm167.72,30.55c.69,.26,1.39,.52,2.08,.77,.89-2.4,1.15-6.16,2.78-6.91,3.57-1.62,3.81-3.08,2.23-6.2-6.52,2.42-6.22,7.66-7.09,12.33Zm-149.74,215.69c2.01,4.35,3.38,7.32,5.34,11.54,1.73-2.99,3.92-5.05,3.59-6.55-.74-3.33-4.06-3.95-8.92-4.99Zm-96.29-126.41c.17,1.72-.06,3.44,.57,4.75,.71,1.48,2.35,2.49,3.27,3.91,.74,1.14,1,2.58,1.8,4.77,.91-3.26,1.51-5.39,2.08-7.44-2.52-1.96-4.86-3.78-7.72-6Zm52.05,118.01c-3.57,3.3-6.01,5.4-3.99,9.3,2.24-.56,4.19-1.04,6.43-1.6-.69-2.2-1.34-4.26-2.43-7.7Zm121.96-7.37c1.1,3.19,2.01,5.83,3.13,9.08,2.03-2.35,3.6-4.16,4.96-5.73-.96-4.96-3.57-5.77-8.08-3.35Zm-63.41,34.74c-7.33-4.75-10.96-4.49-13.73,0h13.73Zm83.6-48.99c-3.35,2.46-5.47,4.02-9.31,6.84h10.62c-.4-2.09-.7-3.64-1.31-6.84Zm-45.8,37.86c-1.52,.85-2.64,1.67-3.89,2.1-1.16,.4-2.46,.38-4.97,.72,2.05,2.27,3.27,3.61,4.67,5.17,1.79-2.53,5.85-2.8,4.18-7.99Zm-5.26,29.91c2.68-1.18,4.9-2.16,7.11-3.14-.93-1.15-1.78-3.2-2.81-3.29-3.31-.3-5.04,1.49-4.3,6.43Zm75.38-237.6c3.76-1.88,6.28-3.14,10.08-5.04-3.24-1.08-4.98-1.66-6.91-2.3-1.04,2.4-1.89,4.37-3.18,7.34Zm-199.12,99.22c5.52-3.1,4.91-5.74,0-7.94v7.94Zm3.19-119.96v8.25q4.93-3.18,0-8.25Zm8.8,35.37c-.63-.04-1.26-.08-1.9-.13-.53,2.91-1.05,5.81-1.71,9.46,6.04-2.35,4.19-6.01,3.61-9.34Zm79.46,184.45c.29-.59,.58-1.18,.86-1.76q-4.35-3.84-9.4-1.62c3.54,1.4,6.03,2.4,8.53,3.39Zm12.61-4.6c-1.99,2.66-3.16,4.23-4.94,6.6,6.12,1.02,6.13-1.47,4.94-6.6Zm150.97-199.45c-2.21-1.32-3.69-2.2-5.16-3.08-.53,.89-1.7,2.34-1.49,2.59,1.06,1.23,2.43,2.27,3.86,3.06,.26,.14,1.33-1.19,2.8-2.57Zm-214.87,60.82c2.06-2.74,4.05-5.7,1.29-9.91-3.14,3.16-2.48,6.4-1.29,9.91Zm-3.91-77c.68,.22,1.35,.45,2.03,.67,.83-2.05,1.66-4.09,2.92-7.17-5.64,1.11-6.1,3.41-4.95,6.51Zm213.52,57.22c.68-5.15-2.58-4.21-5.13-3.78-.68,.12-1.17,1.4-2.46,3.09,3.15,.29,5.2,.48,7.59,.7Zm-221.55,140.57c-.54-.33-1.07-.66-1.61-.99-1.6,1.01-3.19,2.01-5.01,3.16,.93,1.49,1.63,2.61,3.22,5.15,1.52-3.27,2.46-5.29,3.4-7.32Zm57.74-1.77c-1.96,.83-3.42,1.45-5.82,2.47,1.9,1.92,3.33,3.37,5.82,5.89v-8.36Zm118.01-108.11c1.23,3.24,2.88,4.8,5.87,3.69,.47-.18,1-1.71,.74-2.12-1.42-2.22-3.12-4.13-6.6-1.57Zm-154.99,108.76c1.61,2.43,2.62,3.96,4.26,6.44,2.37-4.72,2.45-6.87-4.26-6.44Zm46.11-100.11c-2.38,1.14-3.94,1.88-6.44,3.08,3.01,1.26,4.87,2.04,7.58,3.18-.45-2.49-.69-3.84-1.13-6.26Zm93.35-50.46c3.48,.19,6.1-.67,5.95-4.71-1.98,1.57-3.97,3.14-5.95,4.71Zm58.64,46.65c-1.46-1.28-2.29-2.53-2.92-2.44-1.18,.18-2.25,1.14-3.36,1.77,.63,.79,1.24,2.21,1.9,2.23,1.16,.04,2.34-.77,4.38-1.57Zm-13.8,120.62c-.85,.21-1.7,.41-2.55,.62,.7,2.19,1.39,4.38,2.09,6.57,.61-.16,1.23-.32,1.84-.48-.46-2.24-.92-4.48-1.38-6.72Zm-7.37-207.21c-1.41-3.23-2.11-4.83-2.82-6.44-1.29,.75-2.58,1.5-4.89,2.84,2.72,1.27,4.33,2.02,7.71,3.6Zm11.72,24.16v-8.17c-2.11,2-3.06,2.91-4.29,4.08,1.17,1.11,2.1,2,4.29,4.09Zm-141.9,63.53c.68-.55,1.36-1.1,2.04-1.66-1.59-1.58-3.19-3.17-4.78-4.75-.44,.4-.88,.8-1.32,1.2,1.35,1.74,2.71,3.47,4.06,5.21Zm-24.34,142.62c-.52-.58-1.05-1.17-1.57-1.75-1.45,1.63-2.9,3.26-4.35,4.89,.48,.44,.95,.89,1.43,1.33,1.5-1.49,2.99-2.98,4.49-4.47Zm62.84-140.47c.61-2.75,.94-4.23,1.41-6.35-4.25,1.06-4.9,2.56-1.41,6.35Zm-126.44-43.37c-.58,.14-1.16,.27-1.74,.41,.52,1.67,1.05,3.33,1.57,5,.52-.15,1.03-.31,1.55-.46-.46-1.65-.92-3.3-1.39-4.95Zm26.27,146.83c-.42-.28-.84-.56-1.26-.85-.81,1.07-1.62,2.13-2.42,3.2,.62,.45,1.23,.89,1.85,1.34,.61-1.23,1.22-2.46,1.83-3.69Zm-13.4-145.4c-.44,.47-.87,.94-1.31,1.4,.75,.7,1.49,1.4,2.24,2.11,.5-.55,1.01-1.1,1.51-1.65-.81-.62-1.63-1.24-2.44-1.86Zm25.31,178.58c.14,3.11,.22,4.91,.38,6.71,0,.04,1.23,.22,1.5-.05,2.01-2,1.36-3.79-1.88-6.66Zm99.52-166.07c-.21,.51-.42,1.02-.62,1.52,1.23,.49,2.45,1,3.71,1.4,.06,.02,.44-.93,.67-1.43-1.25-.5-2.5-1-3.76-1.5Zm-6.81-130.95c-.41,.22-.82,.44-1.23,.66,.7,1.5,1.4,3,2.11,4.51,.5-.26,1-.52,1.5-.78-.79-1.46-1.58-2.92-2.37-4.39Zm.96,317.1c.57,.09,1.14,.19,1.71,.28-.08-1.29-.16-2.58-.24-3.87-.23,0-.47,0-.7,0-.26,1.2-.51,2.39-.77,3.59Zm-.46-32.77c-1.57-.96-2.43-1.9-2.99-1.74-.94,.27-2.11,1.1-2.36,1.93-.17,.58,1.18,2.32,1.61,2.24,1.02-.19,1.9-1.15,3.74-2.43Zm-142.69-45.16c-.65,.89-1.5,1.55-1.41,2.06,.1,.61,.99,1.1,1.54,1.65,.53-.55,1.45-1.08,1.47-1.66,.03-.56-.86-1.16-1.6-2.05Zm41.77,40.51c-.47,.18-.95,.36-1.42,.55,0,.8-.29,1.78,.08,2.34,.43,.65,1.43,.92,3.39,2.05-1.08-2.62-1.57-3.78-2.05-4.94Zm81.36-135.63c.39-.21,.78-.43,1.16-.64-.62-1.18-1.25-2.35-1.87-3.53-.43,.24-.86,.48-1.29,.72,.67,1.15,1.33,2.3,2,3.45Zm-114.79,20.15c.59-.08,1.18-.16,1.76-.24-.14-1.19-.28-2.37-.42-3.56-.68,.09-1.37,.17-2.05,.26,.23,1.18,.47,2.36,.7,3.54Z"/><path class="cls-1" d="M1347.14,165.11c-10.94-2.18-11.18-9.66-10.99-17.38,.12-5.15,.43-10.3,.3-15.44-.1-3.67-.71-7.34-1.28-10.98-.31-1.98-1.56-3.94-1.45-5.85,.38-6.23-1.61-11.8-6.36-15.27-4.99-3.64-10.84-7.63-16.67-8.28-12.55-1.4-14.94-7.32-10.1-17.71,4.45-9.53,3.74-19.47,6.32-29,.58-2.14,.34-4.5,.84-6.67,1.51-6.52,4.27-11.25,12.1-12.4,6.5-.95,12.7-2.85,19.51-2.32,5.28,.41,10.77-.73,16.04-1.8,4.52-.91,8.84-2.77,13.49-.61,.72,.33,1.78,.29,2.56,.05,7.47-2.29,14.91-4.68,22.37-7.01,1.63-.51,3.31-1.28,4.95-1.24,10.2,.28,19.94-1.34,29.19-5.88,1.72-.84,3.96-.83,5.97-.84,8.67-.05,17.02-1.67,25.42-3.78,11.37-2.86,17.58,1.46,20.7,12.84,2.88,10.5,6.25,20.86,8.82,31.43,.91,3.75,.37,7.94-.02,11.88-.41,4.13-3.14,6.64-7.07,7.84-1.63,.5-3.33,.88-4.86,1.6-16.25,7.64-21.07,21.81-18.25,40.2,.91,5.91,.71,11.98,1.05,17.98,.31,5.44,.85,10.87,.92,16.32,.07,5.1-.38,10.21-.54,15.32-.17,5.46-.37,10.92-.38,16.38-.04,15.8-.04,31.6,.01,47.4,.08,22.86,.13,45.72,.4,68.58,.14,11.44,1.08,22.88,1.04,34.32-.04,11.47-.83,22.93-1.31,34.39-.52,12.61-1.18,25.22-1.56,37.84-.29,9.76-.81,19.56,1.73,29.2,.48,1.82,.13,4.1-.49,5.94-2.63,7.73,0,14.78,2.7,21.75,2.52,6.51,7.81,9.74,14.51,10.88,1.99,.34,3.98,.62,5.98,.86,10.02,1.2,10.6,1.22,8.79,12.96-1.83,11.85-5.06,23.5-7.85,35.19-.72,3.03-1.74,6.11-3.26,8.81-2.21,3.92-5.29,5.87-10.5,5.9-10.88,.05-21.75,1.68-32.64,2.07-6.22,.22-12.47-.9-18.72-1.09-10.62-.33-21.25-.48-31.88-.56-12.3-.1-24.6-.02-36.9-.07-7.12-.03-14.27,.25-21.35-.33-5.68-.47-8.8-3.94-9.67-9.38-2.55-15.81-5.01-31.63-7.59-47.95,5.39-2.45,10.51-5.96,17.24-6.01,5.71-.04,9.46-4.32,11.89-8.77,2-3.66,3.12-8.23,3.19-12.42,.14-9.19-.7-18.39-1.03-27.59-.16-4.6,.02-9.21-.14-13.81-.8-22.59,.36-45.12,1.34-67.68,.24-5.61-1.24-11.27-1.43-16.92-.16-4.83,.78-9.71,.58-14.54-.37-9.15-1.35-18.28-1.8-27.43-.49-9.95-.32-19.93-1.06-29.85-.61-8.19-2.15-16.31-3.21-24.47-.29-2.27-.52-4.58-.46-6.87,.19-7.71,.82-15.42,.7-23.13-.08-5.11,.76-9.53,3.77-13.83,2.42-3.45,3.85-7.59,6.38-12.76Zm72.01,141.1c2.63-4.93,2.23-5.91-3.99-8.36,1.57,3.14,2.91,5.81,4.29,8.52-3.11,3.06-2.26,6.21-.23,9.37,.25-3.17,4.6-6.39-.08-9.53Zm.51,172.79c1.35-6.9-4.23-5.24-7.73-6.32,.25,1.61,.96,2.9,2.05,3.55,1.82,1.08,3.89,1.75,5.85,2.59-1.88,1.11-3.75,2.22-5.87,3.47,2.81,5.89,8.63,4.59,13.21,6.26-2.51-3.18-5.02-6.36-7.5-9.56Zm-39.03-3.42c-3.85,4.57-6.76,8.02-9.63,11.44,.35,.26,1.39,1.32,2.64,1.89,1.66,.74,3.9,1.97,5.13,1.38,1.33-.64,2.37-3.07,2.5-4.8,.23-3-.34-6.06-.64-9.91Zm59.1,26.07c-4.61,.26-8.26,.46-12.27,.69-1.2,3.39-1.84,6.76,.96,9.24,3.45-1.86,6.3-3.5,9.24-4.95,3.14-1.54,3.52-3.44,2.06-4.98Zm-65.93-174.42c-1.29-4.26,2.12-9.46-2.56-13.43-6.1,6.23,1.68,9.32,2.56,13.43Zm32.72,162.04c4.33,2.11,7.98,3.88,13.27,6.46-3.97-5.46-6.7-9.21-9.66-13.29-1.1,2.09-2.13,4.03-3.6,6.83Zm66.51-6.12c3.52-.19,5.75,.32,6.85-.57,.82-.66,.16-3.14,.16-6.92-2.99,3.19-4.37,4.67-7.01,7.49Zm-41.36-204.19q-6.02,4.97-2.63,7.97c.87-2.65,1.75-5.31,2.63-7.97Zm-28.03,190.03c.59-3.32,1.03-5.83,1.71-9.65-4.88,3.06-7.81,5.1-1.71,9.65Zm-38.07-182.44c-.94,.17-1.88,.33-2.81,.5,.69,2.8,1.37,5.6,2.06,8.4,.69-.13,1.38-.26,2.07-.4-.44-2.83-.88-5.67-1.31-8.5Zm47.22,225.41c-.3,.62-.59,1.24-.89,1.85q5.03,5.92,9.27,2.62c-3.02-1.61-5.7-3.04-8.38-4.47Zm-44.68-32.9c-2.17-2.99-4.29-1.99-6.08,.21-.42,.52,.04,2.69,.49,2.83,2.66,.84,4.88,.29,5.59-3.04Zm69.59-275.75v10.68c-1.2-3.22,5.31-6.55,0-10.68Zm-54.76,85.25c-5.13,3.16-5.18,3.51-2.08,8.91,.68-2.93,1.22-5.21,2.08-8.91Zm10.86,176.94c-.64,.02-1.28,.03-1.92,.05,.14,3.04,.27,6.07,.41,9.11,.5-.01,1.01-.02,1.51-.04v-9.12Zm31.29-62.59c-1.77,3.88-.22,5.69,2.41,8.29,1.33-4-.11-5.84-2.41-8.29Zm-15.82,47.77c-.28-.73-.3-1.12-.48-1.22-1.34-.76-2.71-1.49-4.11-2.13-.08-.04-.86,1.19-.83,1.21,.97,.76,1.96,1.52,3.05,2.1,.43,.23,1.08,.04,2.38,.04Zm-32.55,10.44v7.14c2.76-3.23,3.93-5.13,0-7.14Zm33.9-203.56c4.73,.11,7.31-.21,7.86-4.65-2.49,1.48-4.44,2.63-7.86,4.65Zm-30.31,178.43q2.33,4.84,5.89,1.65c-2-.56-3.64-1.02-5.89-1.65Zm26.84-51.74c-.75,.13-1.5,.27-2.24,.4,.22,1.38,.45,2.76,.67,4.14,.75-.19,2.15-.4,2.15-.57-.04-1.33-.35-2.65-.57-3.97Zm32.63,41.61c.56,.04,1.11,.09,1.67,.13,0-1.37,.01-2.74-.07-4.1,0-.04-1.04-.02-1.6-.02v3.99Zm-13.64-81.28c-5.95,.76-2.12,3.36-1.76,5.19,.01,.05,.96-.08,1.76-.15v-5.04Zm-104.24,146.89c-.44,.37-.88,.75-1.32,1.12,1.04,1.22,2.08,2.44,3.11,3.66,.42-.35,.84-.71,1.26-1.06-1.02-1.24-2.04-2.47-3.05-3.71Zm92.18,8.44c-.73-.08-1.46-.16-2.2-.24-.22,1.63-.44,3.26-.74,5.46,4.91-1.07,4.35-3.02,2.94-5.23Zm13.48-79.56c.16,.68,.32,1.35,.48,2.03,1.8-.5,3.61-1.01,5.41-1.51-.1-.46-.2-.92-.29-1.38-1.86,.29-3.73,.57-5.59,.86Zm9.67-41.99c-1.14-.89-1.81-1.7-2.64-1.94-.43-.13-1.16,.76-1.75,1.18,.6,.77,1.08,1.71,1.85,2.23,.26,.18,1.23-.69,2.53-1.47Zm-60.56-71.43c.43-.65,.86-1.31,1.29-1.96-1.13-.76-2.23-1.61-3.44-2.19-.16-.08-.96,1.19-1.47,1.83,1.21,.77,2.42,1.55,3.62,2.32Zm-1.58-106.23c-.53-.27-.98-.49-1.77-.89-.85,1.23-1.71,2.49-2.69,3.91,4.18,1.72,4.19-.77,4.46-3.02Zm48.82,252.81c.9,3.28,1.32,4.8,1.87,6.82,4.21-3.09,3.04-4.6-1.87-6.82Zm-41.96-211.95c-.59-.41-1.17-.82-1.76-1.23-.89,1.49-1.78,2.97-2.67,4.46,.59,.35,1.18,.71,1.77,1.06,.88-1.43,1.77-2.86,2.65-4.29Zm-24.31,58.48c-.2-3.73-1.41-5.12-5.17-4.44,1.87,1.61,3.25,2.79,5.17,4.44Zm77.31,143.01c-.25-.43-.5-.87-.74-1.3-1.06,.14-2.52-.09-3.09,.51-.68,.72-.59,2.15-1.15,4.75,2.52-2.01,3.75-2.99,4.98-3.97Zm-59.77-20.33c.76-.19,1.52-.39,2.28-.58-.26-1.35-.52-2.7-.79-4.05-.72,.18-2.07,.39-2.07,.54,.06,1.37,.35,2.73,.58,4.1Zm49.33,3.27c-.55,.15-1.09,.3-1.64,.45,.45,1.64,.9,3.27,1.34,4.91,.46-.11,.92-.22,1.38-.33-.36-1.68-.72-3.35-1.08-5.03Zm-10.09-85.37c.52,.15,1.04,.31,1.57,.46,.36-1.2,.75-2.4,1-3.62,.02-.1-.95-.41-1.46-.62-.37,1.26-.73,2.52-1.1,3.78Zm28.53,14.44c-.68-.83-1.14-1.4-1.61-1.96-.5,.49-1.41,.97-1.41,1.46,0,.61,.75,1.22,1.17,1.83,.55-.4,1.11-.79,1.85-1.32Zm-22.71-200.47c.35-.28,.71-.55,1.06-.83-.64-1.45-1.29-2.9-2.48-5.59-.62,2.34-1.33,3.5-1.02,4.27,.36,.9,1.59,1.45,2.45,2.15Z"/><path class="cls-1" d="M1322.48,1064.28c-.32,2.35-.63,4.7-1.21,8.97-2.96-3.08-4.55-4.74-6.16-6.41-.35,.13-1.1,.18-1.21,.47-.86,2.23-1.59,4.5-2.36,6.76-.59-.03-1.19-.07-1.78-.1-.42-1.35-1.26-2.73-1.18-4.05,.14-2.45,.81-4.86,1.2-7.32q1.28-4.07-3.12-4.88c1.3,1.95,2.3,3.43,3.29,4.91-1.36,.23-3.03,.03-4.04,.75-8.11,5.8-10.82,6.25-19.64,2.43-.84,1.78-1.34,3.89-2.63,5.27-1.23,1.32-3.27,1.88-6.14,3.4,.43-3.29,1.24-5.51,.78-7.43-.31-1.28-2.44-2.11-4.6-3.82,3.8-2.16,6.81-3.87,10.19-5.79-1.41-2.54-2.63-4.74-3.99-7.18-3.55,3.32-6.93,6.48-11.5,10.76,.31,.97,1.12,3.54,1.96,6.1,1.49,4.49-.02,6.69-4.65,6.75-6.38,.08-10.9-4.38-13.45-11.3-3.63-9.88-3.49-20.21-4.86-30.37-.42-3.1-1.62-6.1-1.97-9.2-.35-3.04-.08-6.16-.08-9.64,5.56-.55,10.11-.72,14.56-1.5,9.6-1.68,16.16-9.28,16.88-18.86,1.02-13.49,2.33-26.97,3.13-40.47,.41-6.84,.07-13.74-.08-20.6-.22-9.95-1.45-19.8-.11-29.86,1.05-7.82,.04-15.93-.11-23.9-.26-13.94-.6-27.89-.84-41.83-.21-11.77-.25-23.55-.53-35.31-.08-3.14-.09-6.56-1.31-9.33-1.76-3.99-2.31-7.58-.35-11.52,.36-.72,.41-1.75,.23-2.56-2.83-13.26-.35-26.69-1.4-40.03-1.05-13.39-1.01-26.86-1.53-40.29-.37-9.72-.51-19.48-1.45-29.15-.52-5.35-2.16-10.68-3.9-15.81-2.89-8.52-10.47-11.66-18.07-14.53-1.61-.61-3.4-.77-5-1.4-8.55-3.39-10.93-7.04-9.05-15.97,2.25-10.67,5.48-21.13,7.8-31.78,1.18-5.44,4.89-8.46,9.02-10.96,4.4-2.67,9.23-4.73,14.05-6.58,3.63-1.4,7.1-2.3,11.55-1.12,4.71,1.25,10.16-.26,15.29-.62,2.57-.18,5.12-.55,7.69-.7,5.72-.32,11.25-.37,16.79-3.07,5.03-2.45,10.96-3.35,16.61-4.18,10.56-1.55,20.59-4.05,27.87-11.75,5.95,1.57,11.15,2.95,16.64,4.4,5.42-8.29,14.72-6.6,22.49-8.74,1.67-.46,5.21,1.69,6.13,3.52,2.92,5.83,5.49,11.94,7.29,18.21,2.78,9.64,4.7,19.52,7.18,29.24,2.19,8.59,1.28,10.66-6.5,15.32-4.66,2.79-9.28,5.76-13.45,9.21-5.04,4.17-8.55,9.28-7.36,16.53,.35,2.14-.54,4.48-.86,6.73-.33,2.25-.95,4.5-.95,6.75-.06,16.66,.2,33.32-.03,49.98-.24,17.5-.59,34.98-1.48,52.48-1.11,21.81-.56,43.71-1.17,65.55-.3,10.65-2.07,21.27-2.39,31.92-.38,12.61,.2,25.25,.16,37.88-.03,10.05,1.09,20.42-1.01,30.05-2.03,9.33-.21,18.01,0,26.98,.23,9.5-.45,19.05,.37,28.49,.56,6.43,3.21,12.66,4.58,19.05,2.02,9.48,10.29,13.04,16.86,18.19,1,.79,2.75,.65,4.16,.89,7.4,1.23,8.15,2,7.37,9.61-.67,6.56-1.63,13.11-2.75,19.61-1.26,7.35-2.69,14.68-4.3,21.96-1.6,7.25-4.84,9.59-12.04,9.39-15.04-.41-30.05-2.35-45.15-.32-4.37,.59-9.06-.07-13.44-.96-3.72-.76-6.94-1.03-10.6,.51-1.69,.71-4.27-.71-6.34-1.15q.18-7.38-4.03-6.72c.82-2.28,1.6-4.55,2.59-7.4,3.35-.21,7.08-1.44,10.61-4.72-5.38-.87-9.91-1.61-14.52-2.35-.56-3.31,4.96-5.81,1.03-9.26,3.55,.76,6.31-1.84,5.95-4.18-.7-4.59-5.53-2.28-9.73-5.05,1.87,4.41,2.94,6.92,4,9.42-2.35,.38-4.7,.75-6.25,1-1.93,3.65,6.08,5.72,.04,9,3.23,4.06-1.37,5.79-3.14,8.36,3.66,1.67,8.91-.7,9.45,5.22Zm67.87-45.52q2.54-4.73-1.27-11.5c-1.38,4.7,.98,8.01,1.41,11.47,1.34,3.03,2.69,6.06,3.76,8.47q.71-5.55-3.9-8.44Zm-31.23-31.1l.12,.24c1.91-2.02,3.82-4.05,5.87-6.23q-3.93-9.17,1.3-15.82c-.71,4.41-1.87,8.94,3.64,12.26,.75-1.81,.99-3.6,2-4.64,4.43-4.58,4.5-4.49-1.31-6.95-1.25-.53-2.41-1.28-3.62-1.94,.81-3.85,5.62-7.16,1.55-11.84-2.24-.14-4.78,.3-6.73-.58-1.95-.88-3.3-3.08-6.5-6.32,1.4,7.04,2.43,12.22,3.48,17.49-3.14,.95-5.21,1.58-7.4,2.25-.5-3.24,.69-6.72-3.88-7.07-3,4.92-.65,8.99,2.41,12.64-2.89,5.92-5.57,11.4-8.13,16.63,2.18,4.61,3.84,9.63,6.71,13.83,3.58,5.24-1.78,10.87,.93,15.86,7.58-.58,13.56-2.19,12.94-11.12l.04,.27c-4.25-5.74-.05-9.87,4.2-15.35-4.56,.83-6.62-.72-7.62-3.63Zm-21.78,51.67c1.87-3.03,3.68-5.96,5.4-8.76q-6.47-6.24-3.67-12.88c1.84,.23,3.68,.46,5.55,.69,1.14-4.46,3.46-8.24-.33-11.78-7.12-6.67-8.99-17.1-4.18-25.27,2.15-3.65,3.4-6.91-.04-11.07-1.47,2.35-2.53,4.05-4.47,7.17-1.05-5.31-2.2-8.9-2.36-12.53-.17-3.83,.61-7.7,.97-11.56-.58-.26-1.15-.52-1.73-.78-1.82,1.87-3.65,3.75-4.52,4.64,1.32,3.53,3.37,6.24,2.7,7.75-2.39,5.4-.67,9.7,1.27,14.72,1.27,3.28,.03,7.6-.51,11.4-.08,.54-2.54,.73-3.83,1.07,.97,6.22,6.8,4.99,9.16,7.11,0,4.49,.5,8.3-.12,11.92-.87,5.09-3.28,9.97-3.71,15.05-.37,4.28-.38,9.19,4.41,13.12Zm30.47,20.51c3.12-4.11,5.58-7.35,8.3-10.94-6.19-2.72-5.82,5.29-9.5,5.37-2.53-.94-4.81-1.79-6.95-2.59-3.55,5.3-4,10.08-.68,16.15,1.77-5.29,2.83-10.28,8.82-7.99Zm-23.54-10.15c2.22,5.47,4.09,10.06,6.46,15.91,.31-6.29,.57-11.47,.85-17.21-2.96-.36-5.99-1.65-7.31,1.3Zm-16.69-34.24c.72-5.13,1.25-8.86,1.89-13.4-.06-.04-1.19-.83-2.41-1.68-2.34,2.46-4.41,4.63-6.87,7.2,2.41,2.57,4.46,4.75,7.39,7.88Zm42.35-92.02c.48,1.7,.96,3.38,1.64,5.75,3.21-4.02,.96-6.53-.04-9.33h-10.74c1.72,2.92,2.92,4.97,4.36,7.4,1.77-1.41,3.27-2.61,4.79-3.82Zm-62.41-197.26c-.72,4.24-1.25,7.35-1.81,10.69,2.66,.73,4.74,1.29,6.96,1.9,2.18-5.74-.79-8.73-5.15-12.6Zm-20.11,332.4c.13,.62,.26,1.24,.39,1.87,2.55,.58,5.11,1.16,7.87,1.78,.83-3.62,1.44-6.3,2.04-8.92-7.05-3.88-7.17,3.21-10.3,5.27Zm47.58-119.96c.99,5.76,1.66,9.61,2.33,13.47,.51,0,1.02,.01,1.53,.02,1.32-2.89,2.64-5.77,4.14-9.07-2.51-1.38-4.62-2.55-8-4.41Zm40.3,47.16c-5.67,2.9-4.96,6.72-3.05,10.93q6-4.08,3.05-10.93Zm-20.74,46.45c3.86-.2,6.27-.32,9.46-.48-.7-3.34-1.18-5.6-1.75-8.29-2.6,2.95-4.53,5.15-7.71,8.77Zm15.05-216.65c2.93,1.94,4.4,1.14,5.11-1.9,.69-2.93,1.81-5.9-3.08-6.01-.68,2.66-1.36,5.32-2.03,7.91Zm23.36,240.07q-4.19,5.46-1.17,10.98c.49-4.6,.83-7.79,1.17-10.98Zm-79.75-62.08q3.56,5.73,7.26,3.67c-2.58-1.3-4.92-2.49-7.26-3.67Zm46.42-127.16c-1.16,3.42-3.16,5.73-.49,8.84,3.9-2.29,3.07-4.8,.49-8.84Zm-7.81,64.32q-.69,5.03,4.95,5.75c-2.2-2.56-3.57-4.15-4.95-5.75Zm-23.62-238.29c-2.82,1.99-3,4.07-1.28,5.94,.51,.56,2.35-.11,4-.25-1.11-2.32-1.88-3.92-2.72-5.69Zm-60.26,340.79c.6-.11,1.21-.23,1.81-.34,.34-2.41,1.14-4.93-2.95-7.26,.48,3.21,.81,5.41,1.14,7.6Zm132.1,2.75q3.68-3.32,0-6.78v6.78Zm-69.47,24.07c-.41,.55-.83,1.11-1.24,1.66,.75,2.2,1.84,3.66,5.47,1.02-1.66-1.06-2.94-1.87-4.22-2.69Zm-51.22-23.81c.54-.09,1.07-.19,1.6-.28-.23-1.28-.46-2.56-.68-3.84-.54,.11-1.55,.27-1.54,.32,.14,1.27,.39,2.53,.62,3.8Zm60.7,14.78c.46-.54,.92-1.08,1.37-1.63-1.18-.96-2.36-1.92-4.57-3.71,.41,2.3,.3,3.27,.74,3.77,.61,.7,1.62,1.06,2.46,1.56Zm-29.74-3.72c-.51,0-1.03,0-1.54,.01v4.62c.51,0,1.03,0,1.54,0v-4.63Zm64.76-168.8c-.61-.07-1.21-.13-1.82-.2-.25,1.7-.5,3.41-.75,5.11,.67,.08,1.34,.15,2.02,.23,.18-1.71,.37-3.43,.55-5.14Zm10.2,111.2c.67-.72,1.33-1.43,2-2.15-1.38-1.09-2.75-2.17-4.13-3.26-.51,.59-1.02,1.17-1.53,1.76,1.22,1.22,2.44,2.44,3.66,3.65Zm12.27,70.35c-.8,1.24-1.65,1.99-1.55,2.56,.11,.62,1.06,1.37,1.75,1.51,.46,.1,1.66-.97,1.59-1.18-.32-.9-.99-1.68-1.79-2.89Zm-97.55-149.73q-2.86,2.31-.8,5.79c.32-2.33,.53-3.83,.8-5.79Z"/><path class="cls-1" d="M364.87,794.14c-6.44,12.83-3.44,25.21,.96,37.44,2.11,5.87,2,6.71-3.61,8.68-2.05,.72-3.95,1.89-5.99,2.66-1.34,.5-2.96,1.2-4.2,.87-8.57-2.28-17.15-3.7-26.12-3.32-3.73,.16-6.05-3.3-6.87-6.92-2.43-10.77-4.82-21.48-3.55-32.77,.69-6.12,2.35-11.52,5.74-16.52,.7-1.03,1.4-2.08,1.88-3.21,2.49-5.86,4.64-11.93,10.51-15.02-1.79-3.86-3.39-7.29-4.9-10.54,5.74-4.75,6.27-5.73,3.89-11.59-6.59-16.27-14.03-32.08-28-43.61-2.82-2.33-5.98-4.27-9.07-6.25-13.08-8.39-15.02-9.11-31.83-12.01-.84,1.19-2.12,2.42-2.69,3.92-1.77,4.68-5.31,6.97-9.92,7.99-11.34,2.51-22.16,1.53-32.33-4.54-3.7-2.21-7.87-3.65-11.41-6.07-5.66-3.87-10.95-8.26-16.41-12.43-1.96-1.5-3.77-3.27-5.92-4.43-7.21-3.89-12.4-9.73-16.77-16.47-.94-1.44-1.91-3.2-3.32-3.94-11.3-5.92-15.13-18.42-23.75-26.66-1.11-6.45-7.25-10.39-8.03-17.27-1.11-9.73,6.25-18.31,15.72-16.33,5.93,1.24,12.24,3.16,17.02,6.64,5.02,3.65,8.99,2.92,13.55,.92,2.48,1.3,4.87,2.55,6.5,3.4,3.85-.48,7.04-.84,10.21-1.29,3.42-.49,7.18-.33,10.15-1.78,6.12-2.98,11.84-2.47,17.84-.14,1.82,.71,3.83,1.21,5.77,1.29,12.66,.48,20.99,7.78,27.85,17.45,.57,.81,.83,1.86,1.49,2.57,6.75,7.21,5.39,16.48,5.98,25.07,.23,3.38-2.15,6.93-3.38,10.49,2.17,4.26,6.31,5.59,10.5,5.89,6.09,.43,10.59,3.82,15.37,6.87,5.82,3.73,11.64,7.45,17.48,11.15,.62,.39,1.49,.47,2,.95,7.07,6.65,14.38,13.07,21.02,20.13,4.83,5.14,9.19,10.86,12.96,16.83,3.49,5.53,5.84,11.77,8.84,17.62,.99,1.94,2.47,3.63,4.48,6.51,1.59-3.07,2.71-4.66,3.28-6.43,3.33-10.44,8.53-20.09,14.48-29.08,3.77-5.7,7.34-11.85,13.85-15.9,6.64-4.14,10.17-11.61,13.86-18.63,4.19-7.95,5.89-16.14,5.17-25-.46-5.68,4.67-10.87,11.11-11.55,4.49-.47,7.65,2.95,9.2,8.63,2.74,10.04,1.69,19.39-3.29,28.54-2.11,3.88-2.97,8.43-4.96,12.39-1.97,3.91-4.6,7.5-7.01,11.18-3.78,5.76-7.64,11.46-11.41,17.22-1.47,2.24-3.08,4.45-4.13,6.88-1.33,3.08-2.44,6.31-3.13,9.59-1.12,5.38-1.82,10.84-2.84,17.21,3.66-.39,6.23-.56,8.77-.95,8.51-1.32,17.01-2.76,25.53-4.06,1.68-.26,3.42-.17,5.13-.16,1.71,0,4,.83,5.04,.02,7.3-5.66,16.47-3.13,24.51-5.87,7.11-2.43,13.43-5.74,19.95-9.26,5.33-2.87,7.53-7.79,13.44-11.19-6.14-2.11-10.22,.18-14.39,.37-2.86,.13-5.8,.13-7.03-2.81-1.23-2.94,.32-5.09,2.3-7.77,4-5.44,7.76-11.33,9-18.27,.05-.29-.59-.7-1.31-1.49-5.95,3.22-7.63,9.82-11.44,14.7-4.02,5.15-5.73,12.21-12.62,15.1-1.64,.69-3.05,2.6-3.96,4.27-3.53,6.46-9.69,8.17-16.16,9.05-4.36,.59-8.31-3.35-9.16-8.94-1.85-12.21,1.62-22.92,8.58-33.09,4.27-6.23,9.78-10.76,15.3-15.55,5.84-5.08,13.1-6.93,20.12-8.87,11.3-3.12,23.09-3.75,34.75-4.6,12.16-.88,23.83-3.62,35.11-8.07,2.23-.88,3.99-2.9,6.08-4.23,7.67-4.89,14.52-4.31,19.27-.24,2.52,2.16,3.79,4.55,2.88,7.82-1.12,4.05-1.71,8.38-3.59,12.04-3.34,6.5-5.36,13.62-10.94,19.15-3.48,3.44-4.86,8.98-7.28,13.53-.69,1.3-1.46,2.8-2.62,3.55-8.05,5.18-10.94,14.37-16.77,21.26-6.12,7.22-11.93,14.73-18.44,21.58-5.74,6.04-12.15,11.45-18.45,16.92-7.94,6.9-17.61,11.17-27.52,13.3-9.07,1.95-19.25,3.35-27.26-4.35-2.09-2.01-4.35-4.14-5.57-6.68-1.69-3.55-4.55-4.19-7.35-3.23-7.92,2.72-15.81,5.66-23.41,9.18-5.37,2.48-4.79,3.91-1.88,9.08,5.59,9.93,16.2,15.08,22.3,24.49,1.61,2.48,5.18,3.58,7.39,5.78,3.08,3.08,2.57,4.94-1.3,6.51-1.6,.65-3.26,1.51-4.93,1.6-7.15,.37-13.48,2.88-19.48,6.63-2.65,1.66-5.09,1.29-8.15-.47-8.51-4.91-15.62-11.14-21.15-19.17-1.63-2.37-3.06-4.5-7.1-3.88Zm-154.99-147.3c4.16,2.91,7.41,5.91,11.23,7.69,5.92,2.77,12.08,5.3,18.41,6.77,3.54,.83,7.82-.1,11.36-1.37,1.62-.58,2.5-3.81,3.15-6,.12-.39-2.47-1.78-3.95-2.38-1.68-.69-4.08-.48-5.16-1.62-6.4-6.74-12.46-13.8-18.75-20.65-1.7-1.85-3.79-3.33-6.56-5.72-1.15,8.34,8.27,12.37,4.59,20.35-4.1,.84-8.62,1.76-14.31,2.92Zm149.84,142.3c3.44-6.65,3.41-7.34,0-10.99v10.99Zm-6.26-9.19c-2.19,2.71-5.31,2.95-4.2,6.36,.11,.35,.77,.8,1.11,.75,3.15-.43,3.33-2.75,3.09-7.11Zm151.95-74.91q3.25-3.46-.76-4.82c.24,1.53,.48,3.05,.76,4.82Zm-23.58,45.08c2.91,2.29,4.03,1.39,4.14-1.99-1.72,.83-2.93,1.41-4.14,1.99Zm-74.95-5.7c-.44-.12-.88-.23-1.32-.35-.29,1.09-.59,2.18-.8,3.28-.01,.07,.81,.29,1.24,.44,.29-1.13,.58-2.25,.88-3.38Z"/><path class="cls-1" d="M415.49,626.15c-2.92-2.12-5.3-3.85-7.58-5.5-2.89-13.97-.93-27.68,2.11-41.21,1.35-6,4.08-11.7,6.25-17.52,1.26-3.39,3.93-6.45,1.85-11.4-7.13,5.65-12.04,12.22-13.87,20.97-1.13,5.4-2.47,10.64-9.18,13.27-6.4-5.76-13.07-11.23-12.9-21.56,.07-4.74-1.34-9.5-2.18-14.92-4.37,5.95-6.14,17.64-4.5,24.45,.73,3.04,1.1,6.24,1.09,9.36-.02,5.76,1.13,11.1,2.89,16.64,1.72,5.43,4.03,10.39,6.79,15.24,2.29,4.03,4.23,8.18,7.85,11.5,2.8,2.56,4.64,6.35,6.35,9.86,2.26,4.63,1.27,6.64-2.19,10.6-5.5,6.31-12.77,7.78-20.39,10.03-8.37,2.47-15.49,1.28-22.92-1.58-1.98-.76-4.14-2.07-5.3-3.76-3.84-5.57-9.47-9.92-11.27-16.92-1.32-5.16-3.44-10.12-4.71-15.28-4.05-16.49-5.25-33.12-1.97-49.94,.79-4.08,.63-8.34,1.3-12.45,.67-4.1,1.81-8.13,2.82-12.16,.41-1.64,1.41-3.2,1.55-4.84,.79-9.22,4.88-17.4,7.92-25.92,.65-1.82,1.43-3.67,1.61-5.56,.5-5.23,1.61-9.85,5.31-14.18,2.51-2.94,2.56-7.84,4.25-11.62,3.73-8.3,7.42-16.67,11.92-24.55,2.11-3.69,5.63-7.02,9.28-9.29,8.55-5.32,19.61-.22,22.12,9.71,.49,1.92,.93,3.88,1.12,5.85,.61,6.54,2.71,12.45,6.36,17.97,3.7,5.59,5.45,12.16,12.21,15.99,4.38,2.48,6.93,8.09,10.52,12.1,7.4,8.25,14.98,16.35,22.41,24.58,.97,1.07,1.55,2.52,2.17,3.85,.42,.89,.39,2.03,.93,2.81,5.46,7.98,6.71,17.21,8.18,26.44,.63,3.94,.68,7.55-.09,11.6-2.09,11.04-7.26,20.44-13.85,29.15-7.28,9.62-16.74,15.82-29.14,16.83-1.7,.14-3.35,.86-5.14,1.34Zm16.71-51.14c.2-3.81,.32-5.96,.51-9.55-2.61,1.93-3.89,2.87-5.64,4.16,1.51,1.59,2.71,2.85,5.13,5.39Zm-52.68,50.74q-2.39,6.17,.61,7.75c.62-2.71,3.17-5.32-.61-7.75Zm-38.13-52.2q4.33,2.98,5.21-1.82c-1.95,.68-3.58,1.25-5.21,1.82Zm79.5-46.89c.66-.15,1.32-.3,1.98-.45-.42-1.48-.83-2.95-1.25-4.43-.44,.08-.88,.16-1.31,.25,.19,1.54,.38,3.09,.58,4.63Z"/><path class="cls-1" d="M481.44,928.14c-.91,1.29-1.61,3.43-2.97,3.99-9.72,4.08-18.74,9.98-29.34,11.83-6.68,1.17-13.37,2.8-20.09,3.06-6.07,.24-12.51-.11-18.23-1.95-9.48-3.05-20.05-2.95-28.39-9.57-1.59-1.26-4.39-.95-6.1-2.13-4.21-2.9-8.57-5.47-10-11.34-.87-3.56-4.03-6.55-6.34-10.08,2-1.76,3.56-3.13,5.66-4.98-1.95-.59-3.39-1.02-5.21-1.57-1.86-13,.55-24.61,10.22-34.4,5.88-5.95,11.04-12.61,16.71-18.77,5.72-6.22,13.17-9.87,20.32-14.21,7.2-4.37,14.65-6.82,22.41-8.72,15.4-3.77,31.14-4.62,46.92-3.32,6.92,.57,12.89,3.46,18.87,7.49,6.08,4.09,10.59,9.13,14.99,14.61,10.65,13.24,10.58,28.53,6.25,43.43-3.2,11.02-10.19,20.6-20.02,27.48-2.23,1.56-4.16,3.58-6.5,4.93-2.78,1.61-5.85,2.72-9.16,4.21Zm-95.79-32.82c-.85,1.86-2.76,4.18-2.74,6.48,.04,3.25,.5,7.65,2.59,9.49,4.14,3.63,11.13,2.2,15.13,7,0,0,.35-.42,.53-.41,9.1,.54,18.35,.26,27.25,1.9,7.89,1.46,15.53,.69,22.44-1.82,6.92-2.52,12.99-7.6,19.15-11.96,5.19-3.67,10.08-7.79,14.93-11.92,6.02-5.12,7.85-16.32,4.02-23.14-2.34-4.17-6-4.26-8.55-.14-.65,1.04-.8,2.41-1.51,3.38-2.46,3.36-4.44,7.59-7.75,9.68-6.33,4-13.38,6.88-20.24,9.99-6.85,3.11-14.92,2.88-21.26,7.45-3.45,2.5-6.73,5.13-11.44,3.09-.63-.27-2,.24-2.55,.83-3.23,3.48-6.46,2.07-9.89,.4-2.17-1.06-4.64-1.54-6.77-2.66-4.06-2.14-7.97-4.56-13.34-7.67Zm67.15-55.77c-1.76,1.42-3.53,2.85-5.17,4.17,2.7,5.38,6.33,4.63,10.07,3.5,1.28-4.76-2.23-5.83-4.9-7.67Zm-66.86,83.46c-1.81,3.33-3,5.54-4.62,8.53,6.08-.64,4.45-4.34,4.62-8.53Zm17.57-53.41c-.19-.62-.37-1.24-.56-1.86-1.57,.7-3.15,1.4-4.72,2.1,.17,.45,.33,.91,.5,1.36,1.59-.53,3.19-1.07,4.78-1.6Zm27.58,21.3q2.56-3.51,0-4.97v4.97Z"/><path class="cls-1" d="M377.04,959.41c-1.98,4.4-3.54,8.88-5.91,12.88-3.79,6.41-14.01,10.01-21.44,8.09-.72-.19-1.43-.51-2.16-.56-11.52-.81-20.9-6.35-29.77-13.19-4.02-3.1-8.76-5.39-12.4-8.85-5.79-5.5-11.81-11.11-16.11-17.73-3.92-6.04-5.52-13.55-8.43-20.28-4.45-10.28-1.52-20.29,1.09-30.18,.82-3.12,3.28-6.15,5.72-8.44,5.87-5.49,12.01-10.76,19.29-14.38,1.21-.6,2.8-.46,4.22-.64,1.96-.26,4.37,.15,5.79-.86,6-4.21,12.17-2.61,18.43-1.28,1.91,.4,3.86,.67,5.78,1.04,5.28,1.03,6.06,2.99,3.16,7.72-1.15,1.88-2.3,3.77-3.32,5.72-5.74,10.99-3.57,22.26-.97,33.49,.83,3.59,1.89,7.15,3.16,10.61,.98,2.68,2.09,5.46,3.77,7.72,6.98,9.39,14.57,18.21,24.59,24.61,1.83,1.17,3.4,2.76,5.51,4.51Zm-56.2-20.61c7.35-5.35,6.65-11.89,5.02-18.63-5.88-2.27-3.12,5.53-6.88,5.64,3,3.54-.17,6.95-.16,10.41,0,.73,1.1,1.45,2.02,2.58Zm-3.62-31.58c-.69,5.09-8.43,8.86-3.63,15.49,7.56-4.01,5.08-9.89,3.63-15.49Zm-5.56,42.44c2.52-.4,3.23-.48,3.92-.63,.69-.15,1.36-.36,2-.54q-.08-5.61-6.58-8.34c1.97,3.15,3.14,5.04,4.32,6.91-.74,.53-1.49,1.05-3.66,2.6Zm21.07-27.03c.84,2.67,1.82,4.44,1.85,6.22,.03,2.3-.14,4.24,2.92,4.53,.28-7.01-.33-8.54-4.76-10.74Zm-14.81-35.44c-4.78-1.53-5.59,.05-4.75,4.73,1.89-1.88,3.08-3.07,4.75-4.73Zm16.62,56.95c2.26-1.69,3.41-3.37,0-5.18v5.18Zm-14.28,2.55c2.04-.68,4.26-1.68,.89-3.27-.31,1.12-.6,2.2-.89,3.27Zm5.23-31.66c-1.13-.38-1.93-.88-2.69-.83-.54,.04-1.03,.82-1.53,1.27,.93,.53,1.83,1.13,2.82,1.5,.15,.06,.7-.95,1.41-1.94Z"/><path class="cls-1" d="M645.51,1006.37c-1.76,3.85-5.21,3.76-9.67,4.56,2.89-4.61,5.76-5.81,9.71-4.28l-.04-.28Z"/></svg>